<?xml version="1.0" encoding="utf-8"?>
<!-- Generator: Adobe Illustrator 17.0.0, SVG Export Plug-In . SVG Version: 6.00 Build 0)  -->
<!DOCTYPE svg PUBLIC "-//W3C//DTD SVG 1.1//EN" "http://www.w3.org/Graphics/SVG/1.1/DTD/svg11.dtd">
<svg version="1.1" id="Capa_1" xmlns="http://www.w3.org/2000/svg" xmlns:xlink="http://www.w3.org/1999/xlink" x="0px" y="0px"
	 width="592.574px" height="125.733px" viewBox="0 0 592.574 125.733" enable-background="new 0 0 592.574 125.733"
	 xml:space="preserve">
<g>
	<polygon fill="#FFFFFF" points="548.897,33 591.574,33 548.897,71.797 570.236,117 482.749,117 531.825,95.272 	"/>
	<polygon fill="#FFFFFF" points="482.749,113.627 487.016,93 527.561,93 	"/>
	<polygon fill="#FFFFFF" points="45.308,33 2.631,33 45.308,71.797 23.969,117 111.456,117 62.38,95.272 	"/>
	<polygon fill="#FFFFFF" points="111.456,113.627 107.19,93 66.645,93 	"/>
	<polygon fill="#FFFFFF" points="43.173,4 64.512,91 529.693,91 553.167,4 	"/>
	<g>
		<path fill="#27348B" d="M119.556,40.646l-2.133,21.318c-0.475,4.831-1.208,8.511-2.2,11.041c-0.993,2.529-2.596,4.805-4.81,6.825
			c-3.25,2.969-6.896,4.453-10.937,4.453c-0.808,0-1.845-0.218-3.11-0.654l3.507-3.196c1.494,0.492,2.848,0.738,4.061,0.738
			c5.186,0,8.183-3.929,8.992-11.786l0.686-6.539l2.191-22.201h-4.75l3.001-3.059h2.08l0.153-1.529
			c0.633-6.503,2.506-11.571,5.62-15.201c3.113-3.629,7.132-5.445,12.057-5.445c0.932,0,1.979,0.087,3.14,0.262l-3.69,3.614
			c-1.318-0.51-2.61-0.765-3.875-0.765c-3.023,0-5.176,1.048-6.458,3.142c-1.283,2.095-2.214,6.108-2.794,12.04l-0.393,3.881h10.672
			l-3.142,3.059H119.556z"/>
		<path fill="#27348B" d="M136.688,48.002c3.9-7.4,7.739-11.101,11.517-11.101c0.983,0,1.968,0.229,2.952,0.686l-3.715,4.061
			c-0.562-0.316-1.283-0.475-2.161-0.475c-1.827,0-3.755,1.481-5.783,4.443c-2.029,2.962-3.219,6.042-3.57,9.242l-0.712,6.434
			l-3.92,1.318l0.079-0.791l0.185-1.714l0.211-1.714l1.383-12.551l0.16-1.371c0.123-1.037,0.185-1.881,0.185-2.531
			c0-1.072-0.299-1.608-0.897-1.608c-1.408,0-2.808,1.503-4.198,4.509c-0.439-0.333-0.65-0.676-0.633-1.028
			c0.053-1.072,1.034-2.492,2.945-4.258s3.421-2.65,4.531-2.65c1.496,0,2.245,0.985,2.245,2.953c0,0.475-0.044,1.117-0.132,1.925
			l-0.185,1.846l-0.243,2.215L136.688,48.002z"/>
		<path fill="#27348B" d="M166.582,53.75c0.439,0.299,0.659,0.65,0.659,1.055c0,0.545-0.563,1.477-1.688,2.795
			c-3.006,3.48-5.977,5.221-8.912,5.221c-1.793,0-3.27-0.712-4.43-2.136s-1.74-3.243-1.74-5.458c0-4.008,1.516-8.064,4.548-12.168
			c3.032-4.104,6.034-6.157,9.004-6.157c2.145,0,3.217,1.151,3.217,3.454c0,2.584-1.252,5.106-3.757,7.567
			c-2.505,2.461-5.56,4.175-9.163,5.142c0.352,4.219,2.021,6.328,5.01,6.328C162.284,59.393,164.701,57.512,166.582,53.75z
			 M154.427,49.848c0.51,0.176,0.976,0.264,1.397,0.264c2.179,0,4.087-0.668,5.722-2.004c1.635-1.335,2.452-2.9,2.452-4.693
			c0-2.057-1.046-3.085-3.138-3.085c-1.512,0-2.878,0.901-4.1,2.703C155.538,44.834,154.76,47.106,154.427,49.848z"/>
		<path fill="#27348B" d="M168.955,61.397l3.646-2.979c1.374,1.459,3.1,2.188,5.179,2.188c2.536,0,3.805-1.222,3.805-3.665
			c0-1.354-1.164-3.243-3.492-5.669l-1.508-1.556c-2.204-2.303-3.306-4.166-3.306-5.59c0-2.039,0.883-3.753,2.65-5.142
			c1.767-1.388,3.942-2.083,6.526-2.083c1.406,0,2.944,0.264,4.614,0.791l-3.164,2.927c-1.336-1.002-2.821-1.503-4.456-1.503
			c-1.916,0-2.874,0.8-2.874,2.399c0,1.143,1.063,2.821,3.19,5.036l1.635,1.74c2.426,2.531,3.639,4.571,3.639,6.117
			c0,2.215-1.064,4.17-3.19,5.867c-2.127,1.697-4.579,2.544-7.356,2.544C172.523,62.821,170.678,62.346,168.955,61.397z"/>
		<path fill="#27348B" d="M208.189,37.587l-3.006,3.612c-1.407-0.58-2.751-0.87-4.034-0.87c-2.303,0-4.118,0.976-5.445,2.927
			c-1.328,1.951-1.991,4.624-1.991,8.016c0,2.391,0.479,4.315,1.437,5.774c0.958,1.459,2.21,2.188,3.757,2.188
			c2.619,0,4.676-1.714,6.17-5.142c0.386,0.422,0.58,0.817,0.58,1.187c0,1.459-1.138,3.081-3.415,4.865
			c-2.277,1.784-4.364,2.676-6.262,2.676c-1.829,0-3.327-0.734-4.496-2.202c-1.169-1.467-1.753-3.371-1.753-5.708
			c0-4.552,1.546-8.692,4.641-12.419c3.094-3.727,6.53-5.59,10.31-5.59C206.054,36.902,207.223,37.13,208.189,37.587z"/>
		<path fill="#27348B" d="M229.59,51.773c-2.006,3.076-4.268,5.687-6.784,7.831c-2.517,2.145-4.566,3.217-6.15,3.217
			c-1.742,0-2.613-1.159-2.613-3.477c0-0.86,0.114-2.273,0.343-4.24l0.947-8.638c0.017-0.123,0.062-0.632,0.131-1.528l0.158-1.712
			c0.053-0.509,0.079-0.965,0.079-1.369c0-1.019-0.29-1.528-0.87-1.528c-1.335,0-2.776,1.494-4.322,4.482
			c-0.333-0.264-0.5-0.544-0.5-0.844c0-1.09,0.972-2.54,2.915-4.351c1.943-1.81,3.486-2.716,4.63-2.716
			c1.459,0,2.189,1.002,2.189,3.006c0,0.475-0.035,1.028-0.105,1.661l-0.237,2.03l-0.231,2.215l-0.822,7.541
			c-0.141,1.283-0.211,2.584-0.211,3.902c0,1.213,0.447,1.819,1.341,1.819c1.98,0,4.218-1.635,6.715-4.904
			c2.497-3.27,3.973-6.503,4.429-9.703l0.916-6.249l4.271-1.45c-0.492,2.037-0.861,3.854-1.107,5.452l-1.59,11.008
			c-0.089,0.667-0.16,1.229-0.212,1.686l-0.185,1.449c-0.106,0.896-0.159,1.527-0.159,1.896c0,0.755,0.211,1.132,0.633,1.132
			c1.494,0,3.015-1.644,4.562-4.931c0.475,0.281,0.712,0.563,0.712,0.844c0,0.616-0.766,1.855-2.295,3.718
			c-2.058,2.531-3.966,3.797-5.725,3.797c-1.284,0-1.926-0.861-1.926-2.584c0-0.544,0.062-1.274,0.185-2.188l0.298-2.109
			c0.162-1.143,0.27-1.916,0.324-2.32L229.59,51.773z"/>
		<path fill="#27348B" d="M249.382,48.002c3.9-7.4,7.739-11.101,11.517-11.101c0.983,0,1.968,0.229,2.952,0.686l-3.715,4.061
			c-0.562-0.316-1.283-0.475-2.161-0.475c-1.827,0-3.755,1.481-5.783,4.443c-2.029,2.962-3.219,6.042-3.57,9.242l-0.712,6.434
			l-3.92,1.318l0.079-0.791l0.185-1.714l0.211-1.714l1.383-12.551l0.16-1.371c0.123-1.037,0.185-1.881,0.185-2.531
			c0-1.072-0.299-1.608-0.897-1.608c-1.408,0-2.808,1.503-4.198,4.509c-0.439-0.333-0.65-0.676-0.633-1.028
			c0.053-1.072,1.034-2.492,2.945-4.258s3.421-2.65,4.531-2.65c1.496,0,2.245,0.985,2.245,2.953c0,0.475-0.044,1.117-0.132,1.925
			l-0.185,1.846l-0.243,2.215L249.382,48.002z"/>
		<path fill="#27348B" d="M279.624,51.667c-1.984,3.27-4.165,5.946-6.544,8.029s-4.446,3.125-6.202,3.125
			c-2.405,0-3.608-1.942-3.608-5.827c0-5.343,1.753-9.971,5.26-13.882c3.507-3.911,7.66-5.867,12.458-5.867
			c1.828,0,3.384,0.228,4.667,0.685c-0.088,0.316-0.141,0.509-0.158,0.58l-0.316,1.396c-0.211,0.966-0.326,1.528-0.343,1.686
			l-1.688,11.641l-0.237,1.686c-0.229,1.668-0.343,2.783-0.343,3.345c0,0.755,0.219,1.132,0.656,1.132
			c1.47,0,2.975-1.644,4.515-4.931c0.472,0.281,0.708,0.563,0.708,0.844c0,0.616-0.756,1.855-2.268,3.718
			c-2.057,2.531-3.964,3.797-5.722,3.797c-1.283,0-1.925-0.861-1.925-2.584c0-0.527,0.062-1.256,0.186-2.188l0.265-2.109l0.344-2.32
			L279.624,51.667z M281.128,41.224c-1.601-0.895-3.218-1.343-4.854-1.343c-2.462,0-4.529,1.501-6.2,4.502
			c-1.671,3.002-2.506,6.723-2.506,11.164c0,2.283,0.677,3.423,2.032,3.423c1.565,0,3.456-1.193,5.671-3.581
			c2.99-3.212,4.802-6.986,5.435-11.322L281.128,41.224z"/>
		<path fill="#27348B" d="M323.584,37.297l0.251-2.268c0.634-5.625,2.556-10.3,5.769-14.027c3.212-3.727,6.913-5.59,11.102-5.59
			c1.003,0,1.866,0.088,2.588,0.264l-3.747,3.823c-0.827-0.281-1.803-0.422-2.928-0.422c-2.639,0-4.609,0.922-5.91,2.767
			c-1.302,1.844-2.199,4.989-2.691,9.433l-2.434,21.972l-0.185,1.664c-0.158,1.493-0.237,2.556-0.237,3.188
			c0,0.861,0.228,1.291,0.685,1.291c1.457,0,2.922-1.644,4.396-4.931c0.474,0.281,0.71,0.563,0.71,0.844
			c0,0.633-0.712,1.872-2.136,3.718c-1.987,2.531-3.851,3.797-5.591,3.797c-1.354,0-2.031-0.932-2.031-2.795
			c0-0.686,0.105-2.047,0.316-4.087l0.264-2.32l0.189-1.951c-1.194,2.637-3.129,5.155-5.806,7.554s-4.884,3.599-6.621,3.599
			c-2.475,0-3.712-1.942-3.712-5.827c0-5.08,1.712-9.641,5.138-13.685c3.425-4.043,7.289-6.064,11.592-6.064
			C322.768,37.245,323.11,37.262,323.584,37.297z M323.165,41.093c-1.479-0.808-2.833-1.211-4.065-1.211
			c-2.604,0-4.751,1.475-6.44,4.423c-1.689,2.949-2.534,6.697-2.534,11.243c0,2.283,0.668,3.423,2.004,3.423
			c1.618,0,3.516-1.193,5.696-3.581c2.83-3.072,4.5-6.846,5.01-11.322L323.165,41.093z"/>
		<path fill="#27348B" d="M346.462,54.462c0.472,0.281,0.708,0.554,0.708,0.817c0,0.633-0.765,1.881-2.294,3.744
			c-2.057,2.531-3.964,3.797-5.722,3.797c-1.283,0-1.925-0.852-1.925-2.555c0-0.72,0.264-2.932,0.791-6.637l1.028-7.163l0.264-1.817
			l0.211-1.449c0.088-0.615,0.132-1.132,0.132-1.554c0-0.878-0.245-1.317-0.735-1.317c-1.365,0-2.834,1.503-4.409,4.509
			c-0.333-0.299-0.499-0.597-0.499-0.896c0-1.072,0.989-2.514,2.966-4.324c1.978-1.81,3.555-2.716,4.733-2.716
			c1.318,0,1.978,0.913,1.978,2.739c0,0.352-0.07,1.071-0.211,2.16l-0.237,1.765c-0.018,0.141-0.115,0.852-0.29,2.133l-1.081,7.532
			l-0.264,1.686c-0.229,1.668-0.343,2.783-0.343,3.345c0,0.755,0.219,1.132,0.656,1.132
			C343.391,59.393,344.905,57.749,346.462,54.462z M340.104,33.5l2.979-5.458c2.953-1.248,5.229-2.61,6.829-4.087
			c0.352,0.563,0.527,1.028,0.527,1.397C350.44,27.163,346.995,29.879,340.104,33.5z"/>
		<path fill="#27348B" d="M366.029,51.667c-1.984,3.27-4.165,5.946-6.544,8.029s-4.446,3.125-6.202,3.125
			c-2.405,0-3.608-1.942-3.608-5.827c0-5.343,1.753-9.971,5.26-13.882c3.507-3.911,7.66-5.867,12.458-5.867
			c1.828,0,3.384,0.228,4.667,0.685c-0.088,0.316-0.141,0.509-0.158,0.58l-0.316,1.396c-0.211,0.966-0.326,1.528-0.343,1.686
			l-1.688,11.641l-0.237,1.686c-0.229,1.668-0.343,2.783-0.343,3.345c0,0.755,0.219,1.132,0.656,1.132
			c1.47,0,2.975-1.644,4.515-4.931c0.472,0.281,0.708,0.563,0.708,0.844c0,0.616-0.756,1.855-2.268,3.718
			c-2.057,2.531-3.964,3.797-5.722,3.797c-1.283,0-1.925-0.861-1.925-2.584c0-0.527,0.062-1.256,0.186-2.188l0.265-2.109l0.344-2.32
			L366.029,51.667z M367.534,41.224c-1.601-0.895-3.218-1.343-4.854-1.343c-2.462,0-4.529,1.501-6.2,4.502
			c-1.671,3.002-2.506,6.723-2.506,11.164c0,2.283,0.677,3.423,2.032,3.423c1.565,0,3.456-1.193,5.671-3.581
			c2.99-3.212,4.802-6.986,5.435-11.322L367.534,41.224z"/>
		<path fill="#27348B" d="M408.744,51.667c-1.984,3.27-4.165,5.946-6.544,8.029s-4.446,3.125-6.202,3.125
			c-2.405,0-3.608-1.942-3.608-5.827c0-5.343,1.753-9.971,5.26-13.882c3.507-3.911,7.66-5.867,12.458-5.867
			c1.828,0,3.384,0.228,4.667,0.685c-0.088,0.316-0.141,0.509-0.158,0.58l-0.316,1.396c-0.211,0.966-0.326,1.528-0.343,1.686
			l-1.688,11.641l-0.237,1.686c-0.229,1.668-0.343,2.783-0.343,3.345c0,0.755,0.219,1.132,0.656,1.132
			c1.47,0,2.975-1.644,4.515-4.931c0.472,0.281,0.708,0.563,0.708,0.844c0,0.616-0.756,1.855-2.268,3.718
			c-2.057,2.531-3.964,3.797-5.722,3.797c-1.283,0-1.925-0.861-1.925-2.584c0-0.527,0.062-1.256,0.186-2.188l0.265-2.109l0.344-2.32
			L408.744,51.667z M410.249,41.224c-1.601-0.895-3.218-1.343-4.854-1.343c-2.462,0-4.529,1.501-6.2,4.502
			c-1.671,3.002-2.506,6.723-2.506,11.164c0,2.283,0.677,3.423,2.032,3.423c1.565,0,3.456-1.193,5.671-3.581
			c2.99-3.212,4.802-6.986,5.435-11.322L410.249,41.224z"/>
		<path fill="#27348B" d="M452.705,37.297l0.251-2.268c0.634-5.625,2.556-10.3,5.769-14.027c3.212-3.727,6.913-5.59,11.102-5.59
			c1.003,0,1.866,0.088,2.588,0.264l-3.747,3.823c-0.827-0.281-1.803-0.422-2.928-0.422c-2.639,0-4.609,0.922-5.91,2.767
			c-1.302,1.844-2.199,4.989-2.691,9.433l-2.434,21.972l-0.185,1.664c-0.158,1.493-0.237,2.556-0.237,3.188
			c0,0.861,0.228,1.291,0.685,1.291c1.457,0,2.922-1.644,4.396-4.931c0.474,0.281,0.71,0.563,0.71,0.844
			c0,0.633-0.712,1.872-2.136,3.718c-1.987,2.531-3.851,3.797-5.591,3.797c-1.354,0-2.031-0.932-2.031-2.795
			c0-0.686,0.105-2.047,0.316-4.087l0.264-2.32l0.189-1.951c-1.194,2.637-3.129,5.155-5.806,7.554s-4.884,3.599-6.621,3.599
			c-2.475,0-3.712-1.942-3.712-5.827c0-5.08,1.712-9.641,5.138-13.685c3.425-4.043,7.289-6.064,11.592-6.064
			C451.888,37.245,452.23,37.262,452.705,37.297z M452.285,41.093c-1.479-0.808-2.833-1.211-4.065-1.211
			c-2.604,0-4.751,1.475-6.44,4.423c-1.689,2.949-2.534,6.697-2.534,11.243c0,2.283,0.668,3.423,2.004,3.423
			c1.618,0,3.516-1.193,5.696-3.581c2.83-3.072,4.5-6.846,5.01-11.322L452.285,41.093z"/>
		<path fill="#27348B" d="M475.583,54.462c0.472,0.281,0.708,0.554,0.708,0.817c0,0.633-0.765,1.881-2.294,3.744
			c-2.057,2.531-3.964,3.797-5.722,3.797c-1.283,0-1.925-0.852-1.925-2.555c0-0.72,0.264-2.932,0.791-6.637l1.028-7.163l0.264-1.817
			l0.211-1.449c0.088-0.615,0.132-1.132,0.132-1.554c0-0.878-0.245-1.317-0.735-1.317c-1.365,0-2.834,1.503-4.409,4.509
			c-0.333-0.299-0.499-0.597-0.499-0.896c0-1.072,0.989-2.514,2.966-4.324c1.978-1.81,3.555-2.716,4.733-2.716
			c1.318,0,1.978,0.913,1.978,2.739c0,0.352-0.07,1.071-0.211,2.16l-0.237,1.765c-0.018,0.141-0.115,0.852-0.29,2.133l-1.081,7.532
			l-0.264,1.686c-0.229,1.668-0.343,2.783-0.343,3.345c0,0.755,0.219,1.132,0.656,1.132
			C472.511,59.393,474.025,57.749,475.583,54.462z M469.225,33.5l2.979-5.458c2.953-1.248,5.229-2.61,6.829-4.087
			c0.352,0.563,0.527,1.028,0.527,1.397C479.561,27.163,476.115,29.879,469.225,33.5z"/>
		<path fill="#27348B" d="M495.149,51.667c-1.984,3.27-4.165,5.946-6.544,8.029s-4.446,3.125-6.202,3.125
			c-2.405,0-3.608-1.942-3.608-5.827c0-5.343,1.753-9.971,5.26-13.882c3.507-3.911,7.66-5.867,12.458-5.867
			c1.828,0,3.384,0.228,4.667,0.685c-0.088,0.316-0.141,0.509-0.158,0.58l-0.316,1.396c-0.211,0.966-0.326,1.528-0.343,1.686
			l-1.688,11.641l-0.237,1.686c-0.229,1.668-0.343,2.783-0.343,3.345c0,0.755,0.219,1.132,0.656,1.132
			c1.47,0,2.975-1.644,4.515-4.931c0.472,0.281,0.708,0.563,0.708,0.844c0,0.616-0.756,1.855-2.268,3.718
			c-2.057,2.531-3.964,3.797-5.722,3.797c-1.283,0-1.925-0.861-1.925-2.584c0-0.527,0.062-1.256,0.186-2.188l0.265-2.109l0.344-2.32
			L495.149,51.667z M496.654,41.224c-1.601-0.895-3.218-1.343-4.854-1.343c-2.462,0-4.529,1.501-6.2,4.502
			c-1.671,3.002-2.506,6.723-2.506,11.164c0,2.283,0.677,3.423,2.032,3.423c1.565,0,3.456-1.193,5.671-3.581
			c2.99-3.212,4.802-6.986,5.435-11.322L496.654,41.224z"/>
	</g>
</g>
</svg>
