<?xml version="1.0" encoding="utf-8"?>
<!-- Generator: Adobe Illustrator 17.0.0, SVG Export Plug-In . SVG Version: 6.00 Build 0)  -->
<!DOCTYPE svg PUBLIC "-//W3C//DTD SVG 1.1//EN" "http://www.w3.org/Graphics/SVG/1.1/DTD/svg11.dtd">
<svg version="1.1" id="Capa_1" xmlns="http://www.w3.org/2000/svg" xmlns:xlink="http://www.w3.org/1999/xlink" x="0px" y="0px"
	 width="186px" height="168px" viewBox="0 0 186 168" enable-background="new 0 0 186 168" xml:space="preserve">
<path fill="#2F4DB1" d="M0-2.011v134.883c0,8.652,11.953,15.664,26.697,15.664h2.987c13.803,11.848,37.01,19.627,63.313,19.627
	c26.31,0,49.513-7.778,63.319-19.627h2.987c14.744,0,26.697-7.012,26.697-15.664V-2.011"/>
<path fill="none" stroke="#FFFFFF" stroke-miterlimit="10" d="M7.956,0.953v130.221c0,6.95,9.666,12.603,21.548,12.603h5.167
	l1.284,1.098c13.065,11.178,34.659,17.851,57.765,17.851c23.108,0,44.705-6.673,57.772-17.851l1.284-1.098h5.166
	c11.882,0,21.549-5.653,21.549-12.603V0.953"/>
<path fill="#C6C6C6" d="M4.449-3.21L4.76,17.768l0.25,20.979l0.235,20.978l0.153,20.979l0.305,41.958l0.038,5.245l0.017,2.622v0.544
	l0.058,0.652l0.06,0.65l0.144,0.474c0.346,1.307,1.22,2.701,2.313,3.803c1.088,1.144,2.464,2.058,3.901,2.842
	c2.895,1.575,6.185,2.478,9.509,2.944c0.828,0.15,1.676,0.168,2.512,0.258c0.841,0.053,1.682,0.056,2.531,0.082l5.248-0.013
	l0.505-0.001l0.399,0.334c0.507,0.426,1.064,0.917,1.529,1.289l1.597,1.273l0.798,0.637l0.806,0.564l1.612,1.131
	c1.099,0.731,2.251,1.419,3.381,2.117c1.176,0.631,2.325,1.31,3.523,1.903c2.391,1.194,4.833,2.295,7.336,3.25
	c1.256,0.468,2.499,0.968,3.782,1.363c1.275,0.418,2.543,0.855,3.841,1.2c1.292,0.366,2.578,0.749,3.889,1.043
	c1.306,0.314,2.607,0.648,3.93,0.891c2.629,0.555,5.284,0.992,7.949,1.348c2.665,0.362,5.345,0.609,8.027,0.793
	c1.344,0.064,2.686,0.153,4.031,0.195l4.007,0.063l4.086-0.067c1.348-0.043,2.673-0.132,4.011-0.195
	c2.674-0.184,5.36-0.43,8.023-0.793c2.665-0.356,5.319-0.793,7.949-1.349c1.323-0.243,2.622-0.578,3.928-0.891
	c1.312-0.294,2.599-0.677,3.889-1.043c1.299-0.344,2.567-0.782,3.841-1.2c1.283-0.394,2.526-0.896,3.782-1.363
	c2.504-0.954,4.945-2.055,7.336-3.249c1.198-0.592,2.347-1.271,3.523-1.903c1.133-0.7,2.279-1.383,3.386-2.12
	c2.218-1.507,4.262-3.094,6.337-4.89l0.382-0.329l0.523-0.004c3.483-0.029,7.075,0.169,10.29-0.327
	c3.322-0.466,6.613-1.369,9.508-2.944c2.875-1.514,5.458-3.84,6.226-6.699l0.146-0.529l0.045-0.542l0.053-0.543l0.005-0.649
	l0.012-2.623l0.038-5.245l0.307-41.958l0.154-20.978l0.234-20.979l0.252-20.978l0.312-20.979l0.313,20.979l0.251,20.978
	l0.235,20.979l0.154,20.978l0.307,41.958l0.038,5.245l0.012,2.623l-0.001,0.661l-0.06,0.764l-0.072,0.764l-0.187,0.739
	c-0.512,1.976-1.643,3.674-2.97,5.048c-1.328,1.398-2.902,2.447-4.521,3.344c-3.259,1.786-6.824,2.77-10.413,3.294
	c-3.722,0.56-7.164,0.35-10.667,0.403l0.904-0.334c-2.035,1.781-4.285,3.555-6.569,5.116c-1.155,0.777-2.347,1.497-3.528,2.233
	c-1.219,0.663-2.416,1.375-3.656,1.999c-2.477,1.251-5.002,2.403-7.583,3.403c-1.295,0.489-2.578,1.012-3.899,1.427
	c-1.311,0.437-2.618,0.894-3.952,1.256c-1.328,0.384-2.651,0.783-3.998,1.093c-1.341,0.329-2.678,0.679-4.035,0.936
	c-2.699,0.584-5.422,1.046-8.154,1.425c-2.735,0.385-5.476,0.651-8.236,0.854c-1.382,0.072-2.777,0.169-4.15,0.22l-4.085,0.079
	l-4.164-0.083c-1.378-0.051-2.755-0.148-4.132-0.22c-2.75-0.202-5.498-0.468-8.231-0.853c-2.732-0.379-5.455-0.841-8.154-1.424
	c-1.357-0.257-2.694-0.607-4.035-0.936c-1.346-0.309-2.67-0.709-3.998-1.092c-1.334-0.361-2.641-0.818-3.952-1.256
	c-1.319-0.415-2.604-0.937-3.897-1.427c-2.582-0.999-5.108-2.151-7.584-3.403c-1.24-0.622-2.436-1.335-3.655-1.999
	c-1.183-0.737-2.368-1.453-3.532-2.236l-1.727-1.224l-0.862-0.615l-0.795-0.641l-1.591-1.28c-0.596-0.485-1.055-0.899-1.59-1.351
	l0.903,0.332l-5.248-0.012c-0.899-0.03-1.811-0.039-2.713-0.1c-0.902-0.099-1.81-0.128-2.706-0.29
	c-3.589-0.523-7.154-1.508-10.412-3.293c-1.619-0.897-3.193-1.946-4.521-3.344c-1.333-1.398-2.445-3.017-2.982-5.101l-0.189-0.794
	l-0.057-0.656l-0.056-0.653l-0.007-0.195v-0.081v-0.164l0.001-0.328l0.017-2.622l0.038-5.245l0.305-41.958l0.153-20.979
	l0.235-20.978l0.25-20.979L4.449-3.21z"/>
<path fill="#FFFFFF" d="M3.965-2.869v134.36c0,7.171,9.98,13.004,22.247,13.004h5.335l1.326,1.133
	c13.489,11.533,35.784,18.418,59.639,18.418c23.858,0,46.156-6.885,59.647-18.418l1.326-1.133h5.334
	c12.268,0,22.248-5.833,22.248-13.004V-2.869"/>
<polygon fill="#FFFFFF" stroke="#000000" stroke-width="0.75" stroke-miterlimit="10" points="22.436,57.109 16.96,56.1 
	12.884,50.819 11.11,49.613 12.597,57.704 15.643,62.324 25.694,77.568 30.057,81.778 49.378,100.134 63.596,87.286 69.461,83.234 
	79.342,82.639 86.037,77.288 87.102,50.386 75.084,38.367 71.889,34.793 68.272,28.632 56.677,24.524 "/>
<path fill="#2F4DB1" d="M14.843,61.202c1.293,0.531,5.021,4.919,5.021,4.919c2.206,1.396,4.412,3.456,4.412,3.456
	c-0.379,3.789,2.282,4.255,2.282,4.255c2.663-0.133,4.336,1.263,4.336,1.263c1.75-0.465,3.804,0,3.804,0
	c0.228,10.169,11.174,14.59,11.174,14.59c0.684,2.127,3.041,3.021,3.041,3.021c0.254-0.024,0.441,0.029,0.696,0.016
	c2.574-0.131,5.092,0.254,5.092,0.254c0.38-0.798,2.508-2.194,2.508-2.194c1.368-1.396,4.284-2.105,4.284-2.105
	c0.811-0.531,2.375-1.57,2.375-1.57l0.008,20.118H14.843V61.778V61.202"/>
<path fill="#FFF200" stroke="#000000" stroke-width="0.5" stroke-miterlimit="10" d="M19.026,18.438v37.881
	c0,0,20.538,5.782,23.962,6.999c0,0,10.799-1.978,13.917-3.804c0,0,6.767-1.065,2.888-10.498c0,0-1.326-10.116,1.2-14.225
	c0,0-6.82-5.065,0.341-5.617c0,0-1.663,1.359-0.3,1.089c-0.04,0.002,7.574-2.351,8.878,1.163l-0.135-12.99H19.026z"/>
<path fill="#FA2F39" stroke="#000000" stroke-width="0.5" stroke-miterlimit="10" d="M72.27,35.553h19.249v51.918H68.542
	c0,0-0.608-3.082,0-3.691c0,0,2.281-1.522,6.01-2.739c0,0,4.412-6.39,7.681-8.595c0,0,1.902-5.629,0.153-9.128
	c0,0-5.324-11.791-8.367-16.127C74.019,47.191,68.085,38.291,72.27,35.553"/>
<path fill="#1D1D1B" d="M67.515,33.153c0,0.459-0.374,0.833-0.833,0.833c-0.46,0-0.834-0.374-0.834-0.833
	c0-0.46,0.374-0.833,0.834-0.833C67.141,32.32,67.515,32.693,67.515,33.153"/>
<path fill="#FFF200" stroke="#000000" stroke-width="0.5" stroke-miterlimit="10" d="M46.055,90.319c0,0-1.368,7.949-1.977,9.704
	c0,0-4.797,0.644-6.529,2.477c0,0-1.483,1.273,6.352-0.55c0,0,4.906,3.629,6.01,2.925c0,0,1.862-0.758-3.081-3.716
	c0,0,3.185,1.909,4.449,0.963c0,0,0.629-0.687-4.791-2.201l2.425-7.216C48.912,92.704,47.287,92.271,46.055,90.319L46.055,90.319z"
	/>
<path fill="#FFFFFF" d="M68.862,39.332"/>
<g>
	<path fill="#2F4DB1" d="M80.291,89.863c1.182-0.214,2.841-0.374,5.18-0.374c2.362,0,4.046,0.48,5.178,1.439
		c1.079,0.908,1.808,2.4,1.808,4.159c0,1.76-0.552,3.252-1.557,4.266c-1.308,1.305-3.243,1.892-5.506,1.892
		c-0.503,0-0.955-0.027-1.307-0.081v6.425h-3.796V89.863z M84.088,98.019c0.326,0.079,0.729,0.106,1.281,0.106
		c2.038,0,3.294-1.092,3.294-2.932c0-1.653-1.08-2.638-2.992-2.638c-0.779,0-1.306,0.079-1.582,0.159V98.019z"/>
	<path fill="#2F4DB1" d="M110.411,98.419c0,5.892-3.369,9.465-8.322,9.465c-5.027,0-7.969-4.026-7.969-9.145
		c0-5.384,3.245-9.409,8.246-9.409C107.569,89.329,110.411,93.461,110.411,98.419 M98.168,98.659c0,3.519,1.558,5.997,4.122,5.997
		c2.589,0,4.073-2.611,4.073-6.103c0-3.226-1.458-5.998-4.097-5.998C99.676,92.555,98.168,95.168,98.168,98.659"/>
	<polygon fill="#2F4DB1" points="113.707,89.623 117.552,89.623 117.552,104.178 124.289,104.178 124.289,107.589 113.707,107.589 	
		"/>
	<polygon fill="#2F4DB1" points="127.333,89.623 131.179,89.623 131.179,104.178 137.916,104.178 137.916,107.589 127.333,107.589 	
		"/>
	<path fill="#2F4DB1" d="M157.126,98.419c0,5.892-3.369,9.465-8.322,9.465c-5.027,0-7.969-4.026-7.969-9.145
		c0-5.384,3.243-9.409,8.247-9.409C154.285,89.329,157.126,93.461,157.126,98.419 M144.883,98.659c0,3.519,1.56,5.997,4.123,5.997
		c2.589,0,4.071-2.611,4.071-6.103c0-3.226-1.458-5.998-4.097-5.998C146.392,92.555,144.883,95.168,144.883,98.659"/>
	<path fill="#2F4DB1" d="M161.078,103.404c1.114,0.561,2.822,1.12,4.587,1.12c1.898,0,2.901-0.773,2.901-1.947
		c0-1.118-0.868-1.758-3.065-2.532c-3.038-1.039-5.02-2.692-5.02-5.305c0-3.066,2.606-5.412,6.919-5.412
		c2.062,0,3.581,0.426,4.667,0.906l-0.922,3.279c-0.732-0.347-2.035-0.854-3.826-0.854c-1.79,0-2.658,0.8-2.658,1.733
		c0,1.146,1.03,1.653,3.391,2.532c3.228,1.174,4.747,2.826,4.747,5.358c0,3.013-2.361,5.572-7.38,5.572
		c-2.088,0-4.151-0.534-5.181-1.093L161.078,103.404z"/>
	<polygon fill="#2F4DB1" points="80.291,111.688 83.825,111.688 83.825,125.055 90.012,125.055 90.012,128.188 80.291,128.188 	"/>
	<path fill="#2F4DB1" d="M117.798,120.395c0,5.41-3.094,8.691-7.642,8.691c-4.618,0-7.317-3.697-7.317-8.397
		c0-4.945,2.978-8.642,7.571-8.642C115.189,112.047,117.798,115.841,117.798,120.395 M106.555,120.614
		c0,3.232,1.431,5.508,3.786,5.508c2.378,0,3.74-2.398,3.74-5.607c0-2.962-1.338-5.508-3.763-5.508
		C107.94,115.008,106.555,117.407,106.555,120.614"/>
	<path fill="#2F4DB1" d="M133.023,112.156c0.924-0.195,2.794-0.342,4.548-0.342c2.147,0,3.463,0.22,4.594,0.93
		c1.086,0.611,1.87,1.738,1.87,3.232c0,1.469-0.807,2.84-2.562,3.526v0.048c1.778,0.514,3.094,1.934,3.094,4.065
		c0,1.493-0.647,2.668-1.617,3.5c-1.131,0.955-3.024,1.494-6.117,1.494c-1.731,0-3.025-0.123-3.81-0.245V112.156z M136.509,118.473
		h1.155c1.847,0,2.84-0.808,2.84-2.032c0-1.248-0.901-1.91-2.495-1.91c-0.762,0-1.199,0.049-1.5,0.098V118.473z M136.509,125.793
		c0.347,0.049,0.762,0.049,1.362,0.049c1.593,0,3.001-0.637,3.001-2.375c0-1.665-1.408-2.326-3.163-2.326h-1.2V125.793z"/>
	<path fill="#2F4DB1" d="M173.642,119.792c0,5.41-3.095,8.691-7.642,8.691c-4.618,0-7.318-3.697-7.318-8.397
		c0-4.945,2.978-8.642,7.573-8.642C171.032,111.443,173.642,115.238,173.642,119.792 M162.398,120.011
		c0,3.232,1.432,5.508,3.787,5.508c2.377,0,3.74-2.398,3.74-5.607c0-2.962-1.339-5.508-3.763-5.508
		C163.784,114.405,162.398,116.804,162.398,120.011"/>
</g>
<path fill="#FA2F39" d="M60.926,34.407c0,0,3.241-5.146,8.784-2.744c0.086,0.037,0.081-0.082,0.048-0.142l0.04-1.314
	c0.002-0.052-0.013-0.098-0.048-0.139c-0.194-0.228-0.886-1.024-0.893-1.028c-0.151-0.087-2.368-1.589-5.324-0.793
	c0,0-3.002,0.268-4.723,0.629c0,0-3.977,2.294,1.82,5.999"/>
<path fill="#FFEB00" d="M69.888,37.091c-0.387,0.105-0.801-0.025-1.057-0.334c-2.173-2.622,1.55-5.297,3.798-4.628
	c2.113,0.861,2.26,1.843,2.387,2.225c0.035,0.106-0.057,0.205-0.168,0.197c-1.7-0.121-2.752,1.034-2.752,1.034
	S71.024,36.781,69.888,37.091z"/>
<line fill="#2F4DB1" x1="19.643" y1="65.945" x2="19.643" y2="65.404"/>
<path fill="#FFFFFF" stroke="#000000" stroke-width="0.75" stroke-miterlimit="10" d="M14.843,61.202
	c1.293,0.531,5.021,4.919,5.021,4.919c2.206,1.396,4.412,3.456,4.412,3.456c-0.379,3.789,2.282,4.255,2.282,4.255
	c2.663-0.133,4.336,1.263,4.336,1.263c1.75-0.465,3.804,0,3.804,0c0.228,10.169,11.174,14.59,11.174,14.59
	c0.684,2.127,3.041,3.021,3.041,3.021c0.254-0.024,0.441,0.029,0.696,0.016c2.574-0.131,5.092,0.254,5.092,0.254
	c0.38-0.798,2.508-2.194,2.508-2.194c1.368-1.396,4.284-2.105,4.284-2.105c0.811-0.531,2.375-1.57,2.375-1.57"/>
<path fill="#FFF200" stroke="#000000" stroke-width="0.5" stroke-miterlimit="10" d="M48.276,87.522
	c4.932,0.038,4.521,0.253,4.521,0.253l2.642,11.492c6.273,1.673,5.686,2.7,5.686,2.7c-2.215,0.153-4.952-1.369-4.952-1.369
	c1.064,0.483,5.729,5.895,3.372,4.995c-3.746-1.43-5.602-3.397-5.602-3.397c-5.499,2.409-5.043,0.659-5.043,0.659
	c1.393-2.18,3.903-2.764,3.903-2.764C51.28,96.44,48.276,87.522,48.276,87.522L48.276,87.522z"/>
<path fill="none" stroke="#000000" stroke-width="0.75" stroke-miterlimit="10" d="M19.026,56.319c0,0,20.538,5.782,23.962,6.999
	c0,0,10.799-1.978,13.917-3.804c0,0,6.767-1.065,2.888-10.498c0,0-1.326-10.116,1.2-14.225c0,0,3.443-6.467,9.224-2.472"/>
<path fill="#FA2F39" stroke="#000000" stroke-width="0.5" stroke-miterlimit="10" d="M73.514,41.343"/>
</svg>
