<?xml version="1.0" encoding="utf-8"?>
<!-- Generator: Adobe Illustrator 17.0.0, SVG Export Plug-In . SVG Version: 6.00 Build 0)  -->
<!DOCTYPE svg PUBLIC "-//W3C//DTD SVG 1.1//EN" "http://www.w3.org/Graphics/SVG/1.1/DTD/svg11.dtd">
<svg version="1.1" id="Capa_1" xmlns="http://www.w3.org/2000/svg" xmlns:xlink="http://www.w3.org/1999/xlink" x="0px" y="0px"
	 width="186px" height="168px" viewBox="0 0 186 168" enable-background="new 0 0 186 168" xml:space="preserve">
<path fill="#2F4DB1" d="M3.647,2.115v130.728c0,8.385,11.577,15.181,25.858,15.181h2.893c13.369,11.483,35.847,19.022,61.323,19.022
	c25.483,0,47.957-7.539,61.329-19.022h2.893c14.281,0,25.858-6.796,25.858-15.181V2.115"/>
<path fill="none" stroke="#FFFFFF" stroke-miterlimit="10" d="M7.956,0.953v130.221c0,6.95,9.666,12.603,21.548,12.603h5.167
	l1.284,1.098c13.065,11.178,34.659,17.851,57.765,17.851c23.108,0,44.705-6.673,57.772-17.851l1.284-1.098h5.166
	c11.882,0,21.549-5.653,21.549-12.603V0.953"/>
<path fill="#C6C6C6" d="M7.956,0.953l0.301,20.332l0.242,20.333L8.727,61.95l0.148,20.333l0.295,40.665l0.037,5.083l0.016,2.541
	v0.527l0.056,0.632l0.058,0.63l0.139,0.459c0.335,1.267,1.182,2.618,2.24,3.686c1.054,1.109,2.387,1.995,3.778,2.755
	c2.804,1.526,5.991,2.402,9.21,2.853c0.802,0.145,1.623,0.163,2.433,0.25c0.815,0.051,1.629,0.054,2.451,0.079l5.083-0.012
	l0.489-0.001l0.386,0.324c0.491,0.413,1.031,0.889,1.481,1.249l1.547,1.234l0.773,0.617l0.781,0.547l1.561,1.096
	c1.064,0.708,2.18,1.375,3.275,2.052c1.139,0.612,2.252,1.27,3.412,1.844c2.316,1.157,4.681,2.224,7.105,3.15
	c1.217,0.453,2.42,0.938,3.663,1.321c1.235,0.405,2.463,0.829,3.72,1.163c1.251,0.355,2.497,0.726,3.767,1.011
	c1.265,0.304,2.525,0.628,3.806,0.864c2.546,0.538,5.118,0.962,7.699,1.307c2.581,0.351,5.177,0.59,7.775,0.769
	c1.302,0.062,2.602,0.148,3.904,0.189l3.881,0.061l3.958-0.065c1.306-0.042,2.589-0.128,3.885-0.189
	c2.59-0.178,5.192-0.417,7.771-0.769c2.581-0.345,5.152-0.769,7.699-1.307c1.281-0.236,2.54-0.56,3.805-0.864
	c1.271-0.285,2.517-0.656,3.767-1.011c1.258-0.333,2.486-0.758,3.72-1.163c1.243-0.382,2.447-0.868,3.663-1.321
	c2.425-0.925,4.79-1.992,7.105-3.149c1.16-0.574,2.273-1.232,3.412-1.844c1.097-0.678,2.207-1.341,3.28-2.055
	c2.148-1.461,4.128-2.999,6.138-4.739l0.37-0.319l0.507-0.004c3.374-0.028,6.853,0.164,9.967-0.317
	c3.218-0.451,6.405-1.327,9.209-2.853c2.785-1.467,5.286-3.722,6.03-6.493l0.141-0.513l0.044-0.525l0.051-0.526l0.005-0.629
	l0.012-2.542l0.037-5.083l0.297-40.665l0.149-20.332l0.227-20.333l0.244-20.332l0.302-20.333l0.303,20.333l0.243,20.332
	l0.228,20.333l0.149,20.332l0.297,40.665l0.037,5.083l0.012,2.542l-0.001,0.641l-0.058,0.74l-0.07,0.74l-0.181,0.716
	c-0.496,1.915-1.591,3.561-2.877,4.892c-1.286,1.355-2.811,2.372-4.379,3.241c-3.157,1.731-6.61,2.685-10.086,3.192
	c-3.605,0.543-6.939,0.339-10.332,0.391l0.876-0.324c-1.971,1.726-4.15,3.445-6.363,4.958c-1.119,0.753-2.273,1.451-3.417,2.164
	c-1.181,0.643-2.34,1.333-3.541,1.937c-2.399,1.213-4.845,2.329-7.345,3.298c-1.254,0.474-2.497,0.981-3.776,1.383
	c-1.27,0.423-2.536,0.867-3.828,1.217c-1.286,0.372-2.568,0.759-3.872,1.059c-1.299,0.319-2.594,0.658-3.908,0.907
	c-2.614,0.566-5.252,1.014-7.898,1.381c-2.649,0.373-5.304,0.631-7.977,0.828c-1.339,0.07-2.69,0.164-4.02,0.213l-3.957,0.077
	l-4.033-0.081c-1.335-0.049-2.668-0.143-4.002-0.213c-2.664-0.196-5.325-0.454-7.972-0.827c-2.646-0.367-5.284-0.815-7.898-1.38
	c-1.314-0.249-2.609-0.588-3.908-0.907c-1.304-0.3-2.586-0.687-3.872-1.059c-1.292-0.35-2.558-0.793-3.828-1.217
	c-1.278-0.402-2.522-0.908-3.775-1.383c-2.501-0.968-4.947-2.085-7.346-3.298c-1.201-0.603-2.359-1.294-3.54-1.937
	c-1.146-0.714-2.294-1.408-3.421-2.167l-1.673-1.187l-0.835-0.596l-0.77-0.621l-1.541-1.241c-0.577-0.47-1.022-0.871-1.54-1.309
	l0.875,0.322l-5.083-0.012c-0.871-0.029-1.754-0.038-2.628-0.097c-0.874-0.096-1.753-0.124-2.621-0.281
	c-3.476-0.507-6.929-1.462-10.085-3.192c-1.568-0.869-3.093-1.886-4.379-3.241c-1.291-1.355-2.368-2.924-2.888-4.944l-0.183-0.77
	l-0.055-0.636l-0.054-0.633l-0.007-0.189v-0.079v-0.159l0.001-0.318l0.016-2.541l0.037-5.083l0.295-40.665L7.185,61.95l0.228-20.332
	l0.242-20.333L7.956,0.953z"/>
<path fill="#FFFFFF" d="M7.487,1.283v130.221c0,6.95,9.666,12.603,21.548,12.603h5.167l1.284,1.098
	c13.065,11.178,34.659,17.851,57.765,17.851c23.108,0,44.705-6.673,57.772-17.851l1.284-1.098h5.166
	c11.882,0,21.549-5.653,21.549-12.603V1.283"/>
<polygon fill="#FFFFFF" stroke="#000000" stroke-width="0.75" stroke-miterlimit="10" points="26.765,61.565 21.629,60.619 
	17.805,55.664 16.141,54.533 17.536,62.123 20.393,66.457 29.822,80.757 33.914,84.706 52.039,101.926 65.378,89.874 70.88,86.073 
	80.149,85.515 86.429,80.495 87.429,55.258 76.154,43.983 73.157,40.63 69.764,34.85 58.887,30.997 "/>
<path fill="#2F4DB1" d="M19.643,65.404c1.213,0.499,4.71,4.614,4.71,4.614c2.069,1.31,4.139,3.242,4.139,3.242
	c-0.356,3.554,2.14,3.991,2.14,3.991c2.498-0.124,4.067,1.184,4.067,1.184c1.642-0.436,3.569,0,3.569,0
	c0.214,9.54,10.482,13.686,10.482,13.686c0.642,1.995,2.853,2.834,2.853,2.834c0.239-0.023,0.414,0.027,0.653,0.015
	c2.415-0.123,4.777,0.238,4.777,0.238c0.357-0.748,2.353-2.058,2.353-2.058c1.283-1.31,4.019-1.975,4.019-1.975
	c0.761-0.499,2.228-1.472,2.228-1.472l0.008,18.873H19.643V65.945V65.404"/>
<path fill="#FFF200" stroke="#000000" stroke-width="0.5" stroke-miterlimit="10" d="M23.567,25.288v35.536
	c0,0,19.267,5.424,22.479,6.566c0,0,10.13-1.856,13.055-3.568c0,0,6.348-1,2.709-9.848c0,0-1.244-9.49,1.126-13.344
	c0,0-6.398-4.751,0.32-5.27c0,0-1.56,1.275-0.281,1.022c-0.038,0.002,7.105-2.205,8.329,1.091l-0.127-12.185H23.567z"/>
<path fill="#FA2F39" stroke="#000000" stroke-width="0.5" stroke-miterlimit="10" d="M73.514,41.343h18.057v48.704H70.017
	c0,0-0.571-2.892,0-3.462c0,0,2.14-1.428,5.638-2.569c0,0,4.139-5.994,7.205-8.063c0,0,1.784-5.28,0.143-8.563
	c0,0-4.995-11.061-7.849-15.128C75.155,52.261,69.588,43.912,73.514,41.343"/>
<path fill="#1D1D1B" d="M69.054,39.092c0,0.431-0.351,0.782-0.781,0.782c-0.432,0-0.782-0.351-0.782-0.782
	c0-0.432,0.351-0.781,0.782-0.781C68.703,38.31,69.054,38.66,69.054,39.092"/>
<path fill="#FFF200" stroke="#000000" stroke-width="0.5" stroke-miterlimit="10" d="M48.923,92.719c0,0-1.284,7.457-1.855,9.104
	c0,0-4.5,0.604-6.125,2.323c0,0-1.391,1.195,5.959-0.516c0,0,4.602,3.405,5.638,2.744c0,0,1.747-0.711-2.891-3.486
	c0,0,2.988,1.791,4.173,0.903c0,0,0.59-0.645-4.495-2.065l2.275-6.77C51.603,94.956,50.079,94.55,48.923,92.719L48.923,92.719z"/>
<path fill="#FFFFFF" d="M68.862,39.332"/>
<g>
	<path fill="#2F4DB1" d="M81.04,92.291c1.109-0.201,2.666-0.351,4.859-0.351c2.216,0,3.796,0.45,4.858,1.35
		c1.012,0.851,1.696,2.251,1.696,3.901c0,1.651-0.517,3.051-1.461,4.002c-1.227,1.225-3.043,1.775-5.165,1.775
		c-0.472,0-0.896-0.025-1.226-0.076v6.027H81.04V92.291z M84.601,99.943c0.306,0.074,0.684,0.1,1.201,0.1
		c1.911,0,3.09-1.024,3.09-2.751c0-1.55-1.013-2.475-2.807-2.475c-0.73,0-1.225,0.074-1.485,0.149V99.943z"/>
	<path fill="#2F4DB1" d="M109.294,100.317c0,5.527-3.16,8.879-7.806,8.879c-4.716,0-7.476-3.777-7.476-8.579
		c0-5.05,3.044-8.827,7.735-8.827C106.629,91.791,109.294,95.667,109.294,100.317 M97.81,100.543c0,3.301,1.462,5.626,3.867,5.626
		c2.429,0,3.821-2.45,3.821-5.725c0-3.026-1.368-5.627-3.843-5.627C99.224,94.817,97.81,97.267,97.81,100.543"/>
	<polygon fill="#2F4DB1" points="112.386,92.066 115.994,92.066 115.994,105.72 122.314,105.72 122.314,108.92 112.386,108.92 	"/>
	<polygon fill="#2F4DB1" points="125.169,92.066 128.777,92.066 128.777,105.72 135.096,105.72 135.096,108.92 125.169,108.92 	"/>
	<path fill="#2F4DB1" d="M153.118,100.317c0,5.527-3.16,8.879-7.806,8.879c-4.716,0-7.476-3.777-7.476-8.579
		c0-5.05,3.043-8.827,7.736-8.827C150.452,91.791,153.118,95.667,153.118,100.317 M141.632,100.543c0,3.301,1.463,5.626,3.868,5.626
		c2.429,0,3.819-2.45,3.819-5.725c0-3.026-1.368-5.627-3.843-5.627C143.048,94.817,141.632,97.267,141.632,100.543"/>
	<path fill="#2F4DB1" d="M156.825,104.994c1.045,0.526,2.647,1.051,4.303,1.051c1.781,0,2.722-0.725,2.722-1.826
		c0-1.049-0.814-1.65-2.876-2.375c-2.85-0.975-4.709-2.525-4.709-4.976c0-2.876,2.444-5.077,6.491-5.077
		c1.935,0,3.36,0.4,4.378,0.85l-0.865,3.076c-0.687-0.325-1.909-0.801-3.589-0.801c-1.679,0-2.493,0.75-2.493,1.626
		c0,1.075,0.967,1.55,3.181,2.375c3.028,1.101,4.453,2.651,4.453,5.026c0,2.827-2.214,5.227-6.923,5.227
		c-1.959,0-3.894-0.501-4.86-1.025L156.825,104.994z"/>
	<polygon fill="#2F4DB1" points="81.04,112.765 84.354,112.765 84.354,125.304 90.158,125.304 90.158,128.244 81.04,128.244 	"/>
	<path fill="#2F4DB1" d="M116.224,120.933c0,5.075-2.902,8.153-7.169,8.153c-4.332,0-6.864-3.468-6.864-7.878
		c0-4.639,2.794-8.107,7.102-8.107C113.777,113.101,116.224,116.661,116.224,120.933 M105.678,121.139
		c0,3.032,1.342,5.167,3.551,5.167c2.231,0,3.508-2.25,3.508-5.259c0-2.778-1.255-5.167-3.53-5.167
		C106.976,115.88,105.678,118.13,105.678,121.139"/>
	<path fill="#2F4DB1" d="M130.507,113.204c0.866-0.183,2.621-0.321,4.267-0.321c2.014,0,3.248,0.206,4.309,0.873
		c1.018,0.574,1.754,1.63,1.754,3.032c0,1.378-0.757,2.664-2.404,3.308v0.045c1.668,0.483,2.902,1.815,2.902,3.813
		c0,1.4-0.607,2.503-1.517,3.284c-1.061,0.896-2.837,1.401-5.738,1.401c-1.624,0-2.838-0.115-3.574-0.23V113.204z M133.777,119.13
		h1.083c1.733,0,2.664-0.758,2.664-1.907c0-1.171-0.846-1.791-2.341-1.791c-0.714,0-1.125,0.046-1.407,0.092V119.13z
		 M133.777,125.997c0.326,0.046,0.714,0.046,1.278,0.046c1.494,0,2.815-0.598,2.815-2.228c0-1.562-1.321-2.182-2.967-2.182h-1.126
		V125.997z"/>
	<path fill="#2F4DB1" d="M168.611,120.367c0,5.075-2.903,8.153-7.169,8.153c-4.332,0-6.865-3.468-6.865-7.878
		c0-4.639,2.794-8.107,7.104-8.107C166.163,112.536,168.611,116.095,168.611,120.367 M158.063,120.573
		c0,3.032,1.343,5.167,3.552,5.167c2.23,0,3.508-2.25,3.508-5.259c0-2.778-1.256-5.167-3.53-5.167
		C159.363,115.314,158.063,117.565,158.063,120.573"/>
</g>
<path fill="none" stroke="#000000" stroke-width="0.5" stroke-miterlimit="10" d="M71.816,38.478
	c-5.147-4.002-8.88,2.152-8.88,2.152l-0.342,0.647"/>
<path fill="#FA2F39" d="M62.873,40.268c0,0,3.041-4.827,8.24-2.575c0.081,0.035,0.076-0.077,0.045-0.133l0.038-1.233
	c0.001-0.048-0.012-0.092-0.045-0.13c-0.182-0.214-0.831-0.96-0.838-0.964c-0.141-0.081-2.221-1.49-4.995-0.744
	c0,0-2.816,0.252-4.431,0.59c0,0-3.731,2.152,1.708,5.628"/>
<path fill="#FFEB00" d="M71.28,42.786c-0.363,0.099-0.751-0.023-0.991-0.313c-2.038-2.46,1.454-4.969,3.563-4.342
	c1.983,0.808,2.12,1.729,2.239,2.088c0.033,0.1-0.053,0.193-0.158,0.185c-1.595-0.114-2.582,0.97-2.582,0.97
	S72.346,42.495,71.28,42.786z"/>
<line fill="#2F4DB1" x1="19.643" y1="65.945" x2="19.643" y2="65.404"/>
<path fill="#FFFFFF" stroke="#000000" stroke-width="0.75" stroke-miterlimit="10" d="M19.643,65.404
	c1.213,0.499,4.71,4.614,4.71,4.614c2.069,1.31,4.139,3.242,4.139,3.242c-0.356,3.554,2.14,3.991,2.14,3.991
	c2.498-0.124,4.067,1.184,4.067,1.184c1.642-0.436,3.569,0,3.569,0c0.214,9.54,10.482,13.686,10.482,13.686
	c0.642,1.995,2.853,2.834,2.853,2.834c0.239-0.023,0.414,0.027,0.653,0.015c2.415-0.123,4.777,0.238,4.777,0.238
	c0.357-0.748,2.353-2.058,2.353-2.058c1.283-1.31,4.019-1.975,4.019-1.975c0.761-0.499,2.228-1.472,2.228-1.472"/>
<path fill="#FFF200" stroke="#000000" stroke-width="0.5" stroke-miterlimit="10" d="M51.006,90.095
	c4.627,0.036,4.241,0.238,4.241,0.238l2.479,10.781c5.885,1.57,5.334,2.533,5.334,2.533c-2.078,0.143-4.646-1.284-4.646-1.284
	c0.999,0.453,5.375,5.53,3.163,4.686c-3.514-1.341-5.255-3.187-5.255-3.187c-5.158,2.26-4.73,0.619-4.73,0.619
	c1.307-2.045,3.661-2.593,3.661-2.593C53.825,98.461,51.006,90.095,51.006,90.095L51.006,90.095z"/>
<path fill="none" stroke="#000000" stroke-width="0.75" stroke-miterlimit="10" d="M23.567,60.824c0,0,19.267,5.424,22.479,6.566
	c0,0,10.13-1.856,13.055-3.568c0,0,6.348-1,2.709-9.848c0,0-1.244-9.49,1.126-13.344c0,0,3.23-6.067,8.653-2.319"/>
<path fill="none" stroke="#000000" stroke-width="0.75" stroke-miterlimit="10" d="M69.384,87.106c0,0,1.928-1.772,6.271-3.091
	c0,0,4.139-5.994,7.205-8.063c0,0,1.784-5.28,0.143-8.563c0,0-4.995-11.061-7.849-15.128c0,0-6.101-8.557-1.059-11.029"/>
<path fill="#FA2F39" stroke="#000000" stroke-width="0.5" stroke-miterlimit="10" d="M73.514,41.343"/>
</svg>
