<?xml version="1.0" encoding="utf-8"?>
<!-- Generator: Adobe Illustrator 17.0.0, SVG Export Plug-In . SVG Version: 6.00 Build 0)  -->
<!DOCTYPE svg PUBLIC "-//W3C//DTD SVG 1.1//EN" "http://www.w3.org/Graphics/SVG/1.1/DTD/svg11.dtd">
<svg version="1.1" id="Capa_1" xmlns="http://www.w3.org/2000/svg" xmlns:xlink="http://www.w3.org/1999/xlink" x="0px" y="0px"
	 width="185.447px" height="166.571px" viewBox="0 0 185.447 166.571" enable-background="new 0 0 185.447 166.571"
	 xml:space="preserve">
<g>
	<path fill="#2F4DB1" d="M2.647,0.639v130.728c0,8.385,11.577,15.181,25.858,15.181h2.893
		c13.369,11.483,35.847,19.022,61.323,19.022c25.483,0,47.957-7.539,61.329-19.022h2.893c14.281,0,25.858-6.796,25.858-15.181V0.639
		"/>
	<path fill="#FFFFFF" d="M6.956-0.523v130.221c0,6.95,9.666,12.603,21.548,12.603h5.167l1.284,1.098
		C48.02,154.577,69.614,161.25,92.72,161.25c23.108,0,44.705-6.673,57.772-17.851l1.284-1.098h5.166
		c11.882,0,21.549-5.653,21.549-12.603V-0.523"/>
	<path fill="#C6C6C6" d="M6.956-0.523l0.301,20.332l0.242,20.333l0.228,20.332l0.148,20.333l0.295,40.665l0.037,5.083l0.016,2.541
		v0.527l0.056,0.632l0.058,0.63l0.139,0.459c0.335,1.267,1.182,2.618,2.24,3.686c1.054,1.109,2.387,1.995,3.778,2.755
		c2.804,1.526,5.991,2.402,9.21,2.853c0.802,0.145,1.623,0.163,2.433,0.25c0.815,0.051,1.629,0.054,2.451,0.079l5.083-0.012
		l0.489-0.001l0.386,0.324c0.491,0.413,1.031,0.889,1.481,1.249l1.547,1.234l0.773,0.617l0.781,0.547l1.561,1.096
		c1.064,0.708,2.18,1.375,3.275,2.052c1.139,0.612,2.252,1.27,3.412,1.844c2.316,1.157,4.681,2.224,7.105,3.15
		c1.217,0.453,2.42,0.938,3.663,1.321c1.235,0.405,2.463,0.829,3.72,1.163c1.251,0.355,2.497,0.726,3.767,1.011
		c1.265,0.304,2.525,0.628,3.806,0.864c2.546,0.538,5.118,0.962,7.699,1.307c2.581,0.351,5.177,0.59,7.775,0.769
		c1.302,0.062,2.602,0.148,3.904,0.189l3.881,0.061l3.958-0.065c1.306-0.042,2.589-0.128,3.885-0.189
		c2.59-0.178,5.192-0.417,7.771-0.769c2.581-0.345,5.152-0.769,7.699-1.307c1.281-0.236,2.54-0.56,3.805-0.864
		c1.271-0.285,2.517-0.656,3.767-1.011c1.258-0.333,2.486-0.758,3.72-1.163c1.243-0.382,2.447-0.868,3.663-1.321
		c2.425-0.925,4.79-1.992,7.105-3.149c1.16-0.574,2.273-1.232,3.412-1.844c1.097-0.678,2.207-1.341,3.28-2.055
		c2.148-1.461,4.128-2.999,6.138-4.739l0.37-0.319l0.507-0.004c3.374-0.028,6.853,0.164,9.967-0.317
		c3.218-0.451,6.405-1.327,9.209-2.853c2.785-1.467,5.286-3.722,6.03-6.493l0.141-0.513l0.044-0.525l0.051-0.526l0.005-0.629
		l0.012-2.542l0.037-5.083l0.297-40.665l0.149-20.332l0.227-20.333l0.244-20.332l0.302-20.333l0.303,20.333l0.243,20.332
		l0.228,20.333l0.149,20.332l0.297,40.665l0.037,5.083l0.012,2.542l-0.001,0.641l-0.058,0.74l-0.07,0.74l-0.181,0.716
		c-0.496,1.915-1.591,3.561-2.877,4.892c-1.286,1.355-2.811,2.372-4.379,3.241c-3.157,1.731-6.61,2.685-10.086,3.192
		c-3.605,0.543-6.939,0.339-10.332,0.391l0.876-0.324c-1.971,1.726-4.15,3.445-6.363,4.958c-1.119,0.753-2.273,1.451-3.417,2.164
		c-1.181,0.643-2.34,1.333-3.541,1.937c-2.399,1.213-4.845,2.329-7.345,3.298c-1.254,0.474-2.497,0.981-3.776,1.383
		c-1.27,0.423-2.536,0.867-3.828,1.217c-1.286,0.372-2.568,0.759-3.872,1.059c-1.299,0.319-2.594,0.658-3.908,0.907
		c-2.614,0.566-5.252,1.014-7.898,1.381c-2.649,0.373-5.304,0.631-7.977,0.828c-1.339,0.07-2.69,0.164-4.02,0.213l-3.957,0.077
		l-4.033-0.081c-1.335-0.049-2.668-0.143-4.002-0.213c-2.664-0.196-5.325-0.454-7.972-0.827c-2.646-0.367-5.284-0.815-7.898-1.38
		c-1.314-0.249-2.609-0.588-3.908-0.907c-1.304-0.3-2.586-0.687-3.872-1.059c-1.292-0.35-2.558-0.793-3.828-1.217
		c-1.278-0.402-2.522-0.908-3.775-1.383c-2.501-0.968-4.947-2.085-7.346-3.298c-1.201-0.603-2.359-1.294-3.54-1.937
		c-1.146-0.714-2.294-1.408-3.421-2.167l-1.673-1.187l-0.835-0.596l-0.77-0.621l-1.541-1.241c-0.577-0.47-1.022-0.871-1.54-1.309
		l0.875,0.322l-5.083-0.012c-0.871-0.029-1.754-0.038-2.628-0.097c-0.874-0.096-1.753-0.124-2.621-0.281
		c-3.476-0.507-6.929-1.462-10.085-3.192c-1.568-0.869-3.093-1.886-4.379-3.241c-1.291-1.355-2.368-2.924-2.888-4.944l-0.183-0.77
		l-0.055-0.636l-0.054-0.633l-0.007-0.189v-0.079v-0.159l0.001-0.318l0.016-2.541l0.037-5.083l0.295-40.665l0.148-20.333
		l0.228-20.332l0.242-20.333L6.956-0.523z"/>
</g>
<g>
	<polygon fill="#FFFFFF" stroke="#000000" stroke-width="0.5" stroke-miterlimit="10" points="29.656,58.158 23.885,57.095 
		19.588,51.528 17.718,50.257 19.286,58.786 22.497,63.655 33.091,79.723 37.689,84.16 58.054,103.508 74.811,88.814 79.223,85.695 
		89.638,85.068 96.694,79.428 97.817,51.072 85.149,38.404 81.782,34.636 77.969,28.142 65.748,23.812 	"/>
	<path fill="#2F4DB1" stroke="#000000" stroke-width="0.5" stroke-miterlimit="10" d="M21.653,62.472v0.607v48.902h54.943V88.628
		c0,0-1.923-1.12-2.993,0.56c0,0-1.924,1.682-2.779,2.242c0,0-3.074,0.747-4.516,2.219c0,0-2.243,1.471-2.644,2.312
		c0,0-2.654-0.406-5.367-0.268c-0.269,0.013-0.466-0.042-0.734-0.017c0,0-2.484-0.942-3.205-3.184c0,0-11.538-4.659-11.778-15.378
		c0,0-2.165-0.49-4.01,0c0,0-1.763-1.47-4.57-1.331c0,0-2.805-0.491-2.405-4.484c0,0-2.325-2.171-4.65-3.643
		C26.945,67.656,23.016,63.032,21.653,62.472"/>
	<path fill="#FFF200" stroke="#000000" stroke-width="0.5" stroke-miterlimit="10" d="M26.063,17.397v39.928
		c0,0,21.648,6.094,25.257,7.377c0,0,11.382-2.085,14.669-4.009c0,0,7.133-1.123,3.044-11.065c0,0-1.398-10.663,1.265-14.993
		c0,0-6.954-6.895-1.905-6.735c0,0,1.844-0.401,4.009-2.486c0,0,3.527-0.641,8.418,2.085V17.397H26.063z"/>
	<path fill="#FA2F39" stroke="#000000" stroke-width="0.5" stroke-miterlimit="10" d="M82.183,35.437h22.289V91.16H78.254
		c0,0-0.641-4.249,0-4.89c0,0,2.404-1.604,6.335-2.887c0,0,4.65-6.735,8.096-9.06c0,0,2.005-5.933,0.161-9.621
		c0,0-5.612-12.428-8.819-16.998C84.027,47.704,77.772,38.324,82.183,35.437"/>
	<path fill="#FA2F39" d="M70.298,34.636c0,0,3.467-8.018,9.96-2.967L80.82,27.5c0,0-3.849-2.446-8.418-2.085
		c0,0-2.086,2.125-4.009,2.486C68.393,27.901,63.184,27.059,70.298,34.636"/>
	<path fill="#FA2F39" d="M70.298,34.636c0.372-0.967,0.91-1.874,1.58-2.686c0.668-0.807,1.5-1.533,2.525-1.938
		c0.252-0.102,0.516-0.19,0.786-0.245c0.269-0.066,0.545-0.093,0.822-0.115c0.277-0.011,0.555-0.003,0.831,0.031
		c0.275,0.029,0.547,0.086,0.813,0.155c0.264,0.073,0.529,0.153,0.779,0.261c0.258,0.092,0.497,0.222,0.743,0.34
		c0.243,0.122,0.467,0.27,0.701,0.408l0.66,0.463l-0.731,0.298c0.169-1.392,0.325-2.785,0.512-4.176l0.23,0.494
		c-0.134-0.081-0.294-0.172-0.448-0.252c-0.154-0.083-0.314-0.161-0.473-0.24c-0.318-0.154-0.645-0.296-0.974-0.43
		c-0.331-0.131-0.664-0.252-1.002-0.365c-0.337-0.108-0.674-0.22-1.019-0.304c-0.342-0.097-0.69-0.162-1.037-0.236
		c-0.348-0.052-0.696-0.125-1.047-0.149c-0.351-0.042-0.703-0.06-1.055-0.065c-0.352-0.024-0.703,0.01-1.055,0.011l0.307-0.143
		c-0.311,0.297-0.616,0.56-0.94,0.816c-0.165,0.125-0.323,0.257-0.493,0.374l-0.511,0.351c-0.175,0.112-0.36,0.213-0.539,0.318
		c-0.177,0.109-0.371,0.194-0.569,0.277c-0.2,0.077-0.378,0.187-0.597,0.231l-0.632,0.167l-0.056,0.015l-0.079-0.013
		c-0.145-0.024-0.334-0.038-0.497-0.033c-0.168,0.006-0.332,0.029-0.473,0.074c-0.284,0.097-0.441,0.246-0.472,0.544
		c-0.024,0.143,0.001,0.312,0.028,0.48c0.039,0.17,0.091,0.341,0.157,0.513c0.069,0.17,0.138,0.342,0.226,0.509
		c0.084,0.169,0.17,0.337,0.266,0.503c0.374,0.665,0.819,1.302,1.284,1.924C69.315,33.423,69.808,34.027,70.298,34.636
		 M70.122,34.636c-0.567-0.537-0.956-1.08-1.477-1.666c-0.526-0.58-1.037-1.179-1.492-1.834c-0.234-0.322-0.431-0.675-0.612-1.045
		c-0.087-0.187-0.162-0.384-0.223-0.59c-0.052-0.213-0.101-0.432-0.084-0.679c0.009-0.239,0.079-0.514,0.254-0.732
		c0.168-0.22,0.402-0.362,0.626-0.446c0.226-0.086,0.452-0.126,0.672-0.144c0.225-0.017,0.428-0.015,0.667,0.013l-0.133,0.001
		l0.513-0.166c0.173-0.039,0.336-0.152,0.502-0.225c0.167-0.08,0.333-0.161,0.492-0.27c0.158-0.103,0.322-0.196,0.479-0.303
		l0.462-0.338c0.155-0.114,0.299-0.243,0.449-0.363c0.29-0.243,0.581-0.512,0.839-0.772l0.135-0.136l0.171-0.007
		c0.38-0.015,0.763-0.061,1.143-0.047c0.382,0.002,0.763,0.019,1.142,0.06c0.381,0.023,0.754,0.096,1.131,0.149
		c0.371,0.075,0.745,0.143,1.112,0.242c0.369,0.087,0.73,0.201,1.091,0.314c0.358,0.12,0.71,0.255,1.062,0.397
		c0.348,0.146,0.693,0.3,1.033,0.469c0.17,0.085,0.339,0.17,0.506,0.262c0.169,0.092,0.329,0.184,0.507,0.294l0.275,0.168
		l-0.046,0.325c-0.186,1.39-0.404,2.776-0.608,4.163l-0.114,0.76l-0.617-0.461l-0.597-0.444c-0.207-0.128-0.408-0.277-0.62-0.396
		c-0.216-0.116-0.425-0.074-0.65-0.165c-0.218-0.108-0.445-0.188-0.674-0.264c-0.229-0.071-0.463-0.133-0.699-0.169
		c-0.236-0.044-0.475-0.057-0.713-0.065c-0.239,0.003-0.479,0.009-0.717,0.051c-0.237,0.03-0.473,0.092-0.702,0.167
		c-0.464,0.148-0.902,0.377-1.32,0.647c-0.209,0.138-0.408,0.286-0.604,0.445c-0.193,0.163-0.379,0.332-0.56,0.511
		c-0.358,0.358-0.688,0.75-0.99,1.164c-0.3,0.414-0.691,0.832-0.933,1.289"/>
	<path fill="#1D1D1B" d="M77.172,32.792c0,0.42-0.342,0.762-0.762,0.762c-0.421,0-0.763-0.342-0.763-0.762
		c0-0.421,0.342-0.762,0.763-0.762C76.83,32.03,77.172,32.371,77.172,32.792"/>
	<path fill="#FFF200" stroke="#000000" stroke-width="0.5" stroke-miterlimit="10" d="M54.552,93.162c0,0-1.442,8.379-2.084,10.229
		c0,0-5.056,0.678-6.882,2.611c0,0-1.563,1.342,6.695-0.58c0,0,5.171,3.825,6.335,3.083c0,0,1.963-0.799-3.248-3.917
		c0,0,3.357,2.013,4.689,1.015c0,0,0.663-0.725-5.05-2.32l2.556-7.606C57.563,95.676,55.851,95.22,54.552,93.162L54.552,93.162z"/>
	<path fill="#FFFFFF" d="M76.956,33.177c0,0.108-0.087,0.195-0.196,0.195c-0.107,0-0.195-0.087-0.195-0.195
		c0-0.108,0.088-0.196,0.195-0.196C76.869,32.981,76.956,33.069,76.956,33.177"/>
	<path fill="#2F4DB1" d="M78.655,94.642c1.226-0.209,2.947-0.366,5.373-0.366c2.45,0,4.197,0.47,5.371,1.407
		c1.119,0.888,1.876,2.348,1.876,4.068c0,1.722-0.572,3.181-1.615,4.173c-1.357,1.277-3.364,1.85-5.711,1.85
		c-0.522,0-0.99-0.026-1.356-0.079v6.284h-3.938V94.642z M82.593,102.62c0.338,0.078,0.756,0.104,1.328,0.104
		c2.114,0,3.417-1.068,3.417-2.868c0-1.616-1.121-2.581-3.104-2.581c-0.808,0-1.355,0.078-1.641,0.155V102.62z"/>
	<path fill="#2F4DB1" d="M109.897,103.01c0,5.763-3.495,9.258-8.632,9.258c-5.215,0-8.266-3.938-8.266-8.945
		c0-5.266,3.366-9.204,8.553-9.204C106.95,94.12,109.897,98.161,109.897,103.01 M97.199,103.246c0,3.442,1.616,5.866,4.276,5.866
		c2.686,0,4.225-2.554,4.225-5.97c0-3.155-1.513-5.867-4.25-5.867C98.762,97.275,97.199,99.83,97.199,103.246"/>
	<polygon fill="#2F4DB1" points="112.51,94.406 116.499,94.406 116.499,108.644 123.487,108.644 123.487,111.981 112.51,111.981 	
		"/>
	<polygon fill="#2F4DB1" points="125.837,94.406 129.827,94.406 129.827,108.644 136.815,108.644 136.815,111.981 125.837,111.981 	
		"/>
	<path fill="#2F4DB1" d="M154.262,103.01c0,5.763-3.495,9.258-8.632,9.258c-5.215,0-8.266-3.938-8.266-8.945
		c0-5.266,3.364-9.204,8.554-9.204C151.314,94.12,154.262,98.161,154.262,103.01 M141.562,103.246c0,3.442,1.618,5.866,4.277,5.866
		c2.686,0,4.223-2.554,4.223-5.97c0-3.155-1.513-5.867-4.25-5.867C143.127,97.275,141.562,99.83,141.562,103.246"/>
	<path fill="#2F4DB1" d="M157.004,107.887c1.071,0.549,2.712,1.096,4.409,1.096c1.824,0,2.788-0.756,2.788-1.904
		c0-1.094-0.834-1.72-2.946-2.476c-2.92-1.017-4.824-2.633-4.824-5.189c0-2.999,2.504-5.294,6.65-5.294
		c1.982,0,3.442,0.417,4.485,0.886l-0.886,3.208c-0.704-0.339-1.956-0.835-3.677-0.835c-1.72,0-2.554,0.783-2.554,1.695
		c0,1.121,0.99,1.616,3.259,2.477c3.103,1.148,4.563,2.765,4.563,5.241c0,2.947-2.269,5.45-7.093,5.45
		c-2.007,0-3.989-0.522-4.98-1.069L157.004,107.887z"/>
	<polygon fill="#2F4DB1" points="78.655,117.603 82.32,117.603 82.32,130.678 88.738,130.678 88.738,133.743 78.655,133.743 	"/>
	<path fill="#2F4DB1" d="M115.947,126.12c0,5.292-3.209,8.501-7.927,8.501c-4.79,0-7.59-3.616-7.59-8.214
		c0-4.837,3.089-8.453,7.853-8.453C113.241,117.954,115.947,121.666,115.947,126.12 M104.285,126.335
		c0,3.161,1.484,5.388,3.927,5.388c2.467,0,3.879-2.346,3.879-5.484c0-2.897-1.388-5.388-3.903-5.388
		C105.721,120.851,104.285,123.198,104.285,126.335"/>
	<path fill="#2F4DB1" d="M130.126,118.062c0.958-0.191,2.898-0.335,4.718-0.335c2.227,0,3.592,0.215,4.765,0.91
		c1.126,0.598,1.94,1.7,1.94,3.161c0,1.437-0.837,2.778-2.658,3.449v0.047c1.844,0.503,3.209,1.892,3.209,3.976
		c0,1.46-0.671,2.61-1.677,3.424c-1.173,0.934-3.137,1.461-6.345,1.461c-1.796,0-3.138-0.12-3.952-0.24V118.062z M133.742,124.241
		h1.198c1.916,0,2.946-0.79,2.946-1.988c0-1.221-0.935-1.868-2.588-1.868c-0.79,0-1.244,0.048-1.556,0.096V124.241z M133.742,131.4
		c0.36,0.048,0.79,0.048,1.413,0.048c1.652,0,3.113-0.623,3.113-2.323c0-1.629-1.461-2.275-3.281-2.275h-1.245V131.4z"/>
	<path fill="#2F4DB1" d="M167.861,125.53c0,5.292-3.21,8.501-7.927,8.501c-4.79,0-7.591-3.616-7.591-8.214
		c0-4.837,3.089-8.453,7.855-8.453C165.154,117.364,167.861,121.076,167.861,125.53 M156.198,125.745
		c0,3.161,1.485,5.388,3.928,5.388c2.466,0,3.879-2.346,3.879-5.484c0-2.897-1.389-5.388-3.903-5.388
		C157.635,120.261,156.198,122.608,156.198,125.745"/>
	<path fill="none" stroke="#000000" stroke-width="0.5" stroke-miterlimit="10" d="M80.275,32.217
		c-5.783-4.497-9.977,2.418-9.977,2.418l-0.384,0.727"/>
	<path fill="#FFEB00" d="M80.579,37.321c0,0,2.205-2.926,5.853-3.488c0,0-2.486-2.846-5.853-3.447
		C80.579,30.387,77.251,36.6,80.579,37.321"/>
	<path fill="#FFF200" stroke="#000000" stroke-width="0.5" stroke-miterlimit="10" d="M56.893,90.215
		c5.199,0.04,4.765,0.267,4.765,0.267l2.785,12.113c6.612,1.764,5.993,2.846,5.993,2.846c-2.335,0.161-5.22-1.443-5.22-1.443
		c1.122,0.509,6.039,6.214,3.554,5.265c-3.948-1.507-5.905-3.581-5.905-3.581c-5.796,2.539-5.315,0.695-5.315,0.695
		c1.468-2.298,4.114-2.913,4.114-2.913C60.06,99.615,56.893,90.215,56.893,90.215L56.893,90.215z"/>
</g>
</svg>
