<?xml version="1.0" encoding="utf-8"?>
<!-- Generator: Adobe Illustrator 17.0.0, SVG Export Plug-In . SVG Version: 6.00 Build 0)  -->
<!DOCTYPE svg PUBLIC "-//W3C//DTD SVG 1.1//EN" "http://www.w3.org/Graphics/SVG/1.1/DTD/svg11.dtd">
<svg version="1.1" id="Capa_1" xmlns="http://www.w3.org/2000/svg" xmlns:xlink="http://www.w3.org/1999/xlink" x="0px" y="0px"
	 width="180.457px" height="165.349px" viewBox="0 0 180.457 165.349" enable-background="new 0 0 180.457 165.349"
	 xml:space="preserve">
<g>
	<path fill="#F5DF11" d="M-0.492,1.162v129.277c0,8.292,11.577,15.013,25.858,15.013h2.893
		c13.369,11.356,35.847,18.811,61.323,18.811c25.483,0,47.957-7.455,61.329-18.811h2.893c14.281,0,25.858-6.721,25.858-15.013V1.162
		"/>
	<path fill="#FFFFFF" d="M3.817,0v130.221c0,6.95,9.666,12.603,21.548,12.603h5.167l1.284,1.098
		c13.065,11.178,34.659,17.851,57.765,17.851c23.108,0,44.705-6.673,57.772-17.851l1.284-1.098h5.166
		c11.882,0,21.549-5.653,21.549-12.603V0"/>
	<path fill="#C6C6C6" d="M3.817,0l0.301,20.332L4.36,40.665l0.228,20.332L4.736,81.33l0.295,40.665l0.037,5.083l0.016,2.541v0.527
		l0.056,0.632l0.058,0.63l0.139,0.459c0.335,1.267,1.182,2.618,2.24,3.686c1.054,1.109,2.387,1.995,3.778,2.755
		c2.804,1.526,5.991,2.402,9.21,2.853c0.802,0.145,1.623,0.163,2.433,0.25c0.815,0.051,1.629,0.054,2.451,0.079l5.083-0.012
		l0.489-0.001l0.386,0.324c0.491,0.413,1.031,0.889,1.481,1.249l1.547,1.234l0.773,0.617l0.781,0.547l1.561,1.096
		c1.064,0.708,2.18,1.375,3.275,2.052c1.139,0.612,2.252,1.27,3.412,1.844c2.316,1.157,4.681,2.224,7.105,3.15
		c1.217,0.453,2.42,0.938,3.663,1.321c1.235,0.405,2.463,0.829,3.72,1.163c1.251,0.355,2.497,0.726,3.767,1.011
		c1.265,0.304,2.525,0.628,3.806,0.864c2.546,0.538,5.118,0.962,7.699,1.307c2.581,0.351,5.177,0.59,7.775,0.769
		c1.302,0.062,2.602,0.148,3.904,0.189l3.881,0.061l3.958-0.065c1.306-0.042,2.589-0.128,3.885-0.189
		c2.59-0.178,5.192-0.417,7.771-0.769c2.581-0.345,5.152-0.769,7.699-1.307c1.281-0.236,2.54-0.56,3.805-0.864
		c1.271-0.285,2.517-0.656,3.767-1.011c1.258-0.333,2.486-0.758,3.72-1.163c1.243-0.382,2.447-0.868,3.663-1.321
		c2.425-0.925,4.79-1.992,7.105-3.149c1.16-0.574,2.273-1.232,3.412-1.844c1.097-0.678,2.207-1.341,3.28-2.055
		c2.148-1.461,4.128-2.999,6.138-4.739l0.37-0.319l0.507-0.004c3.374-0.028,6.853,0.164,9.967-0.317
		c3.218-0.451,6.405-1.327,9.209-2.853c2.785-1.467,5.286-3.722,6.03-6.493l0.141-0.513l0.044-0.525l0.051-0.526l0.005-0.629
		l0.012-2.542l0.037-5.083l0.297-40.665l0.149-20.332l0.227-20.333l0.244-20.332L175.352,0l0.303,20.333l0.243,20.332l0.228,20.333
		l0.149,20.332l0.297,40.665l0.037,5.083l0.012,2.542l-0.001,0.641l-0.058,0.74l-0.07,0.74l-0.181,0.716
		c-0.496,1.915-1.591,3.561-2.877,4.892c-1.286,1.355-2.811,2.372-4.379,3.241c-3.157,1.731-6.61,2.685-10.086,3.192
		c-3.605,0.543-6.939,0.339-10.332,0.391l0.876-0.324c-1.971,1.726-4.15,3.445-6.363,4.958c-1.119,0.753-2.273,1.451-3.417,2.164
		c-1.181,0.643-2.34,1.333-3.541,1.937c-2.399,1.213-4.845,2.329-7.345,3.298c-1.254,0.474-2.497,0.981-3.776,1.383
		c-1.27,0.423-2.536,0.867-3.828,1.217c-1.286,0.372-2.568,0.759-3.872,1.059c-1.299,0.319-2.594,0.658-3.908,0.907
		c-2.614,0.566-5.252,1.014-7.898,1.381c-2.649,0.373-5.304,0.631-7.977,0.828c-1.339,0.07-2.69,0.164-4.02,0.213l-3.957,0.077
		l-4.033-0.081c-1.335-0.049-2.668-0.143-4.002-0.213c-2.664-0.196-5.325-0.454-7.972-0.827c-2.646-0.367-5.284-0.815-7.898-1.38
		c-1.314-0.249-2.609-0.588-3.908-0.907c-1.304-0.3-2.586-0.687-3.872-1.059c-1.292-0.35-2.558-0.793-3.828-1.217
		c-1.278-0.402-2.522-0.908-3.775-1.383c-2.501-0.968-4.947-2.085-7.346-3.298c-1.201-0.603-2.359-1.294-3.54-1.937
		c-1.146-0.714-2.294-1.408-3.421-2.167l-1.673-1.187l-0.835-0.596l-0.77-0.621l-1.541-1.241c-0.577-0.47-1.022-0.871-1.54-1.309
		l0.875,0.322l-5.083-0.012c-0.871-0.029-1.754-0.038-2.628-0.097c-0.874-0.096-1.753-0.124-2.621-0.281
		c-3.476-0.507-6.929-1.462-10.085-3.192c-1.568-0.869-3.093-1.886-4.379-3.241c-1.291-1.355-2.368-2.924-2.888-4.944l-0.183-0.77
		l-0.055-0.636l-0.054-0.633l-0.007-0.189v-0.079v-0.159l0.001-0.318l0.016-2.541l0.037-5.083L2.898,81.33l0.148-20.333
		l0.228-20.332l0.242-20.333L3.817,0z"/>
	<polygon fill="#FFFFFF" points="34.87,58.965 26.514,55.872 26.514,64.05 37.952,80.246 42.55,84.683 62.915,104.031 
		79.672,89.337 84.084,86.218 94.499,85.591 101.555,79.951 102.678,51.595 90.01,38.927 86.643,35.159 82.83,28.665 70.609,24.335 
			"/>
	<path fill="#27348B" d="M26.515,59.773v0.695v55.964h54.943V89.706c0,0-1.923-1.282-2.993,0.641c0,0-1.924,1.925-2.779,2.566
		c0,0-3.074,0.855-4.516,2.539c0,0-2.243,1.684-2.644,2.646c0,0-2.654-0.464-5.367-0.306c-0.269,0.015-0.537,0.036-0.805,0.065
		c0,0-2.485-1.122-3.206-3.688c0,0-11.466-5.372-11.706-17.639c0,0-2.165-0.561-4.01,0c0,0-1.763-1.683-4.57-1.523
		c0,0-2.805-0.562-2.405-5.132c0,0-2.325-2.485-4.65-4.169C31.807,65.706,27.878,60.414,26.515,59.773"/>
	<path fill="#F5DF11" d="M30.924,17.92v39.928c0,0,21.648,6.094,25.257,7.377c0,0,11.382-2.085,14.669-4.009
		c0,0,7.133-1.123,3.044-11.065c0,0-1.398-10.663,1.265-14.993c0,0-6.954-6.895-1.905-6.735c0,0,1.844-0.401,4.009-2.486
		c0,0,3.527-0.641,8.418,2.085V17.92H30.924z"/>
	<path fill="#BD0E1A" d="M87.044,35.96h22.289v55.723H83.115c0,0-0.641-4.249,0-4.89c0,0,2.404-1.604,6.335-2.887
		c0,0,4.65-6.735,8.096-9.06c0,0,2.005-5.933,0.161-9.621c0,0-5.612-12.428-8.819-16.998C88.888,48.227,82.633,38.846,87.044,35.96"
		/>
	<path fill="#9D0F18" d="M75.159,35.159c0,0,3.467-8.018,9.96-2.967l0.562-4.169c0,0-3.849-2.446-8.418-2.085
		c0,0-2.086,2.125-4.009,2.486C73.254,28.424,68.045,27.582,75.159,35.159"/>
	<path fill="#1D1D1B" d="M75.159,35.159c0.372-0.967,0.91-1.874,1.58-2.686c0.668-0.807,1.5-1.533,2.525-1.938
		c0.252-0.102,0.516-0.19,0.786-0.245c0.269-0.066,0.545-0.093,0.822-0.115c0.277-0.011,0.555-0.003,0.831,0.031
		c0.275,0.029,0.547,0.086,0.813,0.155c0.264,0.073,0.529,0.153,0.779,0.261c0.258,0.092,0.497,0.222,0.743,0.34
		c0.243,0.122,0.467,0.27,0.701,0.408l0.66,0.463l-0.731,0.298c0.169-1.392,0.325-2.785,0.512-4.176l0.23,0.494
		c-0.134-0.081-0.294-0.172-0.448-0.252c-0.154-0.083-0.314-0.161-0.473-0.24c-0.318-0.154-0.645-0.296-0.974-0.43
		c-0.331-0.131-0.664-0.252-1.002-0.365c-0.337-0.108-0.674-0.22-1.019-0.304c-0.342-0.097-0.69-0.162-1.037-0.236
		c-0.348-0.052-0.696-0.125-1.047-0.149c-0.351-0.042-0.703-0.06-1.055-0.065c-0.352-0.024-0.703,0.01-1.055,0.011l0.307-0.143
		c-0.311,0.297-0.616,0.56-0.94,0.816c-0.165,0.125-0.323,0.257-0.493,0.374l-0.511,0.351c-0.175,0.112-0.36,0.213-0.539,0.318
		c-0.177,0.109-0.371,0.194-0.569,0.277c-0.2,0.077-0.378,0.187-0.597,0.231l-0.632,0.167l-0.056,0.015l-0.079-0.013
		c-0.145-0.024-0.334-0.038-0.497-0.033c-0.168,0.006-0.332,0.029-0.473,0.074c-0.284,0.097-0.441,0.246-0.472,0.544
		c-0.024,0.143,0.001,0.312,0.028,0.48c0.039,0.17,0.091,0.341,0.157,0.513c0.069,0.17,0.138,0.342,0.226,0.509
		c0.084,0.169,0.17,0.337,0.266,0.503c0.374,0.665,0.819,1.302,1.284,1.924C74.176,33.946,74.669,34.55,75.159,35.159
		 M75.159,35.159c-0.567-0.537-1.131-1.08-1.652-1.666c-0.526-0.58-1.037-1.179-1.492-1.834c-0.234-0.322-0.431-0.675-0.612-1.045
		c-0.087-0.187-0.162-0.384-0.223-0.59c-0.052-0.213-0.101-0.432-0.084-0.679c0.009-0.239,0.079-0.514,0.254-0.732
		c0.168-0.22,0.402-0.362,0.626-0.446c0.226-0.086,0.452-0.126,0.672-0.144c0.225-0.017,0.428-0.015,0.667,0.013l-0.133,0.001
		l0.513-0.166c0.173-0.039,0.336-0.152,0.502-0.225c0.167-0.08,0.333-0.161,0.492-0.27c0.158-0.103,0.322-0.196,0.479-0.303
		l0.462-0.338c0.155-0.114,0.299-0.243,0.449-0.363c0.29-0.243,0.581-0.512,0.839-0.772l0.135-0.136l0.171-0.007
		c0.38-0.015,0.763-0.061,1.143-0.047c0.382,0.002,0.763,0.019,1.142,0.06c0.381,0.023,0.754,0.096,1.131,0.149
		c0.371,0.075,0.745,0.143,1.112,0.242c0.369,0.087,0.73,0.201,1.091,0.314c0.358,0.12,0.71,0.255,1.062,0.397
		c0.348,0.146,0.693,0.3,1.033,0.469c0.17,0.085,0.339,0.17,0.506,0.262c0.169,0.092,0.329,0.184,0.507,0.294l0.275,0.168
		L86.18,28.09c-0.186,1.39-0.404,2.776-0.608,4.163l-0.114,0.76l-0.617-0.461l-0.597-0.444c-0.207-0.128-0.408-0.277-0.62-0.396
		c-0.216-0.116-0.425-0.246-0.65-0.337c-0.218-0.108-0.445-0.188-0.674-0.264c-0.229-0.071-0.463-0.133-0.699-0.169
		c-0.236-0.044-0.475-0.057-0.713-0.065c-0.239,0.003-0.479,0.009-0.717,0.051c-0.237,0.03-0.473,0.092-0.702,0.167
		c-0.464,0.148-0.902,0.377-1.32,0.647c-0.209,0.138-0.408,0.286-0.604,0.445c-0.193,0.163-0.379,0.332-0.56,0.511
		c-0.358,0.358-0.688,0.75-0.99,1.164C75.695,34.276,75.401,34.702,75.159,35.159"/>
	<path fill="#1D1D1B" d="M82.033,33.314c0,0.42-0.342,0.762-0.762,0.762c-0.421,0-0.763-0.342-0.763-0.762
		c0-0.421,0.342-0.762,0.763-0.762C81.691,32.552,82.033,32.894,82.033,33.314"/>
	<path fill="#FFFFFF" d="M81.817,33.7c0,0.108-0.087,0.195-0.196,0.195c-0.107,0-0.195-0.087-0.195-0.195
		c0-0.108,0.088-0.196,0.195-0.196C81.73,33.504,81.817,33.592,81.817,33.7"/>
	<path fill="#FFEB00" d="M85.44,37.844c0,0,2.205-2.926,5.853-3.488c0,0-2.486-2.846-5.853-3.447
		C85.44,30.909,82.112,37.123,85.44,37.844"/>
	<path fill="#1D1D1B" d="M85.44,37.844c0.309-0.497,0.683-0.956,1.097-1.379c0.414-0.422,0.868-0.81,1.362-1.149
		c0.242-0.177,0.502-0.327,0.759-0.485c0.27-0.133,0.533-0.285,0.817-0.393c0.277-0.125,0.564-0.226,0.857-0.317
		c0.287-0.102,0.594-0.144,0.891-0.219l-0.276,0.756c-0.177-0.182-0.385-0.381-0.591-0.561c-0.207-0.183-0.425-0.356-0.638-0.532
		c-0.433-0.346-0.888-0.663-1.358-0.947c-0.236-0.143-0.477-0.272-0.719-0.402c-0.119-0.069-0.244-0.12-0.366-0.18
		c-0.125-0.057-0.247-0.12-0.374-0.167c-0.251-0.104-0.505-0.199-0.764-0.274c-0.257-0.091-0.522-0.133-0.782-0.208l0.513-0.249
		c-0.149,0.267-0.297,0.561-0.435,0.849c-0.142,0.289-0.265,0.586-0.395,0.879c-0.256,0.59-0.47,1.196-0.63,1.808
		c-0.078,0.306-0.144,0.616-0.171,0.926c-0.012,0.154-0.025,0.31-0.023,0.463c0.002,0.153,0.012,0.308,0.045,0.455
		c0.025,0.15,0.071,0.294,0.134,0.43c0.059,0.139,0.141,0.27,0.245,0.382c0.1,0.118,0.225,0.216,0.359,0.302
		C85.132,37.722,85.286,37.781,85.44,37.844 M85.44,37.844c-0.162-0.026-0.332-0.048-0.49-0.109
		c-0.162-0.053-0.322-0.133-0.459-0.244c-0.142-0.104-0.268-0.239-0.368-0.387c-0.107-0.145-0.184-0.311-0.243-0.479
		c-0.243-0.681-0.213-1.4-0.127-2.077c0.089-0.683,0.276-1.339,0.482-1.984c0.104-0.323,0.231-0.637,0.358-0.95
		c0.129-0.314,0.262-0.617,0.418-0.934l0.159-0.325l0.355,0.075c0.299,0.063,0.606,0.103,0.895,0.201
		c0.295,0.08,0.581,0.182,0.864,0.293c0.143,0.051,0.28,0.116,0.417,0.178c0.138,0.064,0.28,0.119,0.411,0.192
		c0.271,0.135,0.534,0.283,0.787,0.444c0.508,0.319,0.994,0.67,1.452,1.052c0.23,0.19,0.45,0.392,0.663,0.602
		c0.216,0.211,0.415,0.419,0.625,0.662l0.521,0.602l-0.796,0.154c-0.269,0.052-0.544,0.079-0.808,0.149
		c-0.271,0.058-0.539,0.126-0.801,0.217c-0.268,0.075-0.521,0.194-0.781,0.294c-0.254,0.116-0.514,0.224-0.761,0.362
		c-0.253,0.125-0.489,0.279-0.734,0.423c-0.243,0.149-0.479,0.309-0.711,0.477C86.305,37.07,85.858,37.435,85.44,37.844"/>
	<path fill="#FFDC00" d="M59.147,94.169c0,0-1.176,8.779-1.818,10.824c0,0-5.056,0.75-6.882,2.886c0,0-1.563,1.484,6.695-0.641
		c0,0,5.171,4.229,6.335,3.408c0,0,1.963-0.883-3.248-4.33c0,0,3.357,2.225,4.689,1.122c0,0,0.663-0.801-5.05-2.565l1.818-7.497
		C61.686,97.376,60.777,97.109,59.147,94.169"/>
	<path fill="#FFDC00" d="M63.14,97.738c0,0,3.167,6.4,4.771,10.249c0,0-2.646,0.615-4.114,2.913c0,0-0.481,1.844,5.315-0.695
		c0,0,1.957,2.074,5.905,3.581c2.485,0.949-2.432-4.756-3.554-5.265c0,0,2.885,1.604,5.22,1.443c0,0,0.619-1.082-5.993-2.846
		l-2.785-9.113C67.905,98.005,68.339,97.778,63.14,97.738"/>
	<path fill="#27348B" d="M85.336,100.044c0.979-0.167,2.354-0.292,4.291-0.292c1.957,0,3.352,0.375,4.29,1.124
		c0.894,0.709,1.498,1.875,1.498,3.249c0,1.375-0.457,2.541-1.29,3.333c-1.084,1.02-2.687,1.478-4.561,1.478
		c-0.417,0-0.791-0.021-1.083-0.063v5.019h-3.145V100.044z M88.481,106.416c0.27,0.062,0.604,0.083,1.061,0.083
		c1.688,0,2.729-0.853,2.729-2.291c0-1.291-0.895-2.061-2.479-2.061c-0.645,0-1.082,0.062-1.311,0.124V106.416z"/>
	<path fill="#27348B" d="M110.289,106.728c0,4.603-2.791,7.394-6.894,7.394c-4.165,0-6.602-3.145-6.602-7.144
		c0-4.206,2.688-7.351,6.831-7.351C107.935,99.627,110.289,102.855,110.289,106.728 M100.147,106.916
		c0,2.749,1.291,4.685,3.415,4.685c2.145,0,3.374-2.04,3.374-4.768c0-2.52-1.208-4.686-3.394-4.686
		C101.396,102.147,100.147,104.188,100.147,106.916"/>
	<polygon fill="#27348B" points="112.375,99.856 115.561,99.856 115.561,111.228 121.142,111.228 121.142,113.893 112.375,113.893 	
		"/>
	<polygon fill="#27348B" points="123.019,99.856 126.205,99.856 126.205,111.228 131.786,111.228 131.786,113.893 123.019,113.893 	
		"/>
	<path fill="#27348B" d="M145.721,106.728c0,4.603-2.791,7.394-6.894,7.394c-4.165,0-6.602-3.145-6.602-7.144
		c0-4.206,2.687-7.351,6.832-7.351C143.367,99.627,145.721,102.855,145.721,106.728 M135.578,106.916
		c0,2.749,1.292,4.685,3.416,4.685c2.145,0,3.373-2.04,3.373-4.768c0-2.52-1.208-4.686-3.394-4.686
		C136.828,102.147,135.578,104.188,135.578,106.916"/>
	<path fill="#27348B" d="M147.91,110.623c0.855,0.438,2.166,0.875,3.521,0.875c1.457,0,2.227-0.604,2.227-1.521
		c0-0.874-0.666-1.374-2.353-1.978c-2.332-0.812-3.853-2.103-3.853-4.144c0-2.395,2-4.228,5.311-4.228
		c1.583,0,2.749,0.333,3.582,0.708l-0.708,2.562c-0.562-0.271-1.562-0.667-2.937-0.667c-1.374,0-2.04,0.625-2.04,1.354
		c0,0.895,0.791,1.291,2.603,1.978c2.478,0.917,3.644,2.208,3.644,4.186c0,2.354-1.812,4.353-5.665,4.353
		c-1.603,0-3.186-0.417-3.977-0.854L147.91,110.623z"/>
	<polygon fill="#27348B" points="85.542,118.583 89.207,118.583 89.207,131.658 95.625,131.658 95.625,134.723 85.542,134.723 	"/>
	<path fill="#27348B" d="M116.104,126.486c0,5.292-3.209,8.501-7.927,8.501c-4.79,0-7.59-3.616-7.59-8.214
		c0-4.837,3.089-8.453,7.853-8.453C113.398,118.32,116.104,122.032,116.104,126.486 M104.442,126.701
		c0,3.161,1.484,5.388,3.927,5.388c2.467,0,3.879-2.346,3.879-5.484c0-2.897-1.388-5.388-3.903-5.388
		C105.878,121.217,104.442,123.564,104.442,126.701"/>
	<path fill="#27348B" d="M122.96,118.798c0.958-0.191,2.898-0.335,4.718-0.335c2.227,0,3.592,0.215,4.765,0.91
		c1.126,0.598,1.94,1.7,1.94,3.161c0,1.437-0.837,2.778-2.658,3.449v0.047c1.844,0.503,3.209,1.892,3.209,3.976
		c0,1.46-0.671,2.61-1.677,3.424c-1.173,0.934-3.137,1.461-6.345,1.461c-1.796,0-3.138-0.12-3.952-0.24V118.798z M126.576,124.977
		h1.198c1.916,0,2.946-0.79,2.946-1.988c0-1.221-0.935-1.868-2.588-1.868c-0.79,0-1.244,0.048-1.556,0.096V124.977z
		 M126.576,132.137c0.36,0.048,0.79,0.048,1.413,0.048c1.652,0,3.113-0.623,3.113-2.323c0-1.629-1.461-2.275-3.281-2.275h-1.245
		V132.137z"/>
	<path fill="#27348B" d="M156.66,126.486c0,5.292-3.21,8.501-7.927,8.501c-4.79,0-7.591-3.616-7.591-8.214
		c0-4.837,3.089-8.453,7.855-8.453C153.953,118.32,156.66,122.032,156.66,126.486 M144.997,126.701c0,3.161,1.485,5.388,3.928,5.388
		c2.466,0,3.879-2.346,3.879-5.484c0-2.897-1.389-5.388-3.903-5.388C146.434,121.217,144.997,123.564,144.997,126.701"/>
</g>
</svg>
