<?xml version="1.0" encoding="utf-8"?>
<!-- Generator: Adobe Illustrator 17.0.0, SVG Export Plug-In . SVG Version: 6.00 Build 0)  -->
<!DOCTYPE svg PUBLIC "-//W3C//DTD SVG 1.1//EN" "http://www.w3.org/Graphics/SVG/1.1/DTD/svg11.dtd">
<svg version="1.1" id="Capa_1" xmlns="http://www.w3.org/2000/svg" xmlns:xlink="http://www.w3.org/1999/xlink" x="0px" y="0px"
	 width="651px" height="70px" viewBox="0 0 651 70" enable-background="new 0 0 651 70" xml:space="preserve">
<g>
	<defs>
		<rect id="SVGID_23_" x="778" y="-1287.754" width="1028" height="3567.754"/>
	</defs>
	<clipPath id="SVGID_2_">
		<use xlink:href="#SVGID_23_"  overflow="visible"/>
	</clipPath>
</g>
<g>
	<text transform="matrix(1 0 0 1 122.4512 55.5834)"><tspan x="0" y="0" fill="#27348B" font-family="'GillSans-Bold'" font-size="66">NOS</tspan><tspan x="156.267" y="0" fill="#27348B" font-family="'GillSans-Bold'" font-size="66" letter-spacing="-3">O</tspan><tspan x="208.675" y="0" fill="#27348B" font-family="'GillSans-Bold'" font-size="66">TROS</tspan></text>
	<path fill-rule="evenodd" clip-rule="evenodd" fill="#27348B" d="M85.755,45.965c8.462-0.65,14.674-4.056,20.397-8.622
		c2.474-1.972,5.071-3.578,8.125-0.953c0.891,0.767,1.683,1.593,1.15,2.887c-0.27,0.65-0.739,1.289-1.54,1.179
		c-1.201-0.164-1.739-0.975-1.814-2.177c-0.04-0.679-0.429-1.198-1.194-0.991c-0.732,0.199-0.81,0.835-0.65,1.479
		c0.407,1.625,1.317,2.884,2.989,3.286c1.745,0.419,2.723-0.809,3.558-2.06c0.932-1.394,0.434-2.588-0.593-3.743
		c-3.226-3.629-5.95-3.921-9.921-0.964c-5.232,3.896-10.561,7.51-17.192,8.745c-5.562,1.036-11.259-2.307-12.192-7.461
		c-0.328-1.809,0.286-3.214,1.649-4.378c1.221-1.044,2.524-0.999,3.877-0.34c1.246,0.606,2.291,1.428,1.921,2.997
		c-0.366,1.567-1.508,2.17-3.096,2.204c-0.839,0.017-2.41-0.717-2.37,0.549c0.043,1.372,1.748,1.531,2.935,1.336
		c2.196-0.364,3.845-1.518,4.425-3.839c0.509-2.038-0.495-3.478-2.104-4.316c-2.024-1.053-4.216-1.651-6.326,0.044
		c-4.138,3.32-2.7,10.667,2.749,13.371C82.449,45.147,84.45,46.143,85.755,45.965"/>
	<path fill-rule="evenodd" clip-rule="evenodd" fill="#27348B" d="M31.292,40.165c-4.336,0-8.671-0.017-13.007,0.019
		c-0.603,0.006-1.417-0.419-1.781,0.52c0.538,0.201,1.071,0.563,1.616,0.578c5.456,0.148,10.912,0.229,16.368,0.354
		c3.281,0.074,6.598-0.326,9.817,0.614c0.805,0.237,1.398,0.032,1.786-0.61c0.184-0.307,0.235-0.858,0.082-1.167
		c-0.336-0.685-1.027-0.395-1.622-0.393c-4.418,0.019-8.839,0.011-13.259,0.011V40.165z"/>
	<path fill-rule="evenodd" clip-rule="evenodd" fill="#27348B" d="M67.095,36.907c-2.311-0.046-3.189,0.928-3.183,2.707
		c0.006,2.108,0.702,3.881,3.078,4.085c2.223,0.19,3.191-1.445,3.158-3.305C70.11,38.352,68.631,37.233,67.095,36.907"/>
	<path fill-rule="evenodd" clip-rule="evenodd" fill="#27348B" d="M58.426,40.807c0.043,1.317,0.462,1.987,1.557,1.925
		c1.298-0.071,1.794-0.917,1.71-2.094c-0.067-0.912-0.505-1.814-1.526-1.719C58.994,39.027,58.518,39.993,58.426,40.807"/>
	<path fill-rule="evenodd" clip-rule="evenodd" fill="#27348B" d="M54.385,42.385c0.911-0.081,1.529-0.449,1.546-1.398
		c0.017-0.998-0.515-1.664-1.504-1.696c-0.963-0.031-1.651,0.547-1.66,1.55C52.756,41.864,53.459,42.318,54.385,42.385"/>
	<path fill-rule="evenodd" clip-rule="evenodd" fill="#27348B" d="M565.245,45.965c-8.462-0.65-14.674-4.056-20.396-8.622
		c-2.475-1.972-5.072-3.578-8.125-0.953c-0.892,0.767-1.684,1.593-1.151,2.887c0.27,0.65,0.739,1.289,1.54,1.179
		c1.201-0.164,1.739-0.975,1.814-2.177c0.04-0.679,0.429-1.198,1.194-0.991c0.732,0.199,0.811,0.835,0.65,1.479
		c-0.407,1.625-1.317,2.884-2.989,3.286c-1.745,0.419-2.723-0.809-3.558-2.06c-0.932-1.394-0.434-2.588,0.593-3.743
		c3.226-3.629,5.949-3.921,9.921-0.964c5.232,3.896,10.561,7.51,17.192,8.745c5.562,1.036,11.259-2.307,12.192-7.461
		c0.328-1.809-0.286-3.214-1.648-4.378c-1.222-1.044-2.525-0.999-3.878-0.34c-1.245,0.606-2.291,1.428-1.921,2.997
		c0.366,1.567,1.508,2.17,3.096,2.204c0.839,0.017,2.411-0.717,2.37,0.549c-0.042,1.372-1.748,1.531-2.935,1.336
		c-2.196-0.364-3.845-1.518-4.425-3.839c-0.509-2.038,0.495-3.478,2.104-4.316c2.024-1.053,4.216-1.651,6.326,0.044
		c4.138,3.32,2.7,10.667-2.749,13.371C568.551,45.147,566.55,46.143,565.245,45.965"/>
	<path fill-rule="evenodd" clip-rule="evenodd" fill="#27348B" d="M619.708,40.165c4.336,0,8.671-0.017,13.007,0.019
		c0.603,0.006,1.417-0.419,1.781,0.52c-0.538,0.201-1.071,0.563-1.616,0.578c-5.456,0.148-10.912,0.229-16.368,0.354
		c-3.281,0.074-6.598-0.326-9.817,0.614c-0.805,0.237-1.398,0.032-1.786-0.61c-0.184-0.307-0.235-0.858-0.082-1.167
		c0.336-0.685,1.027-0.395,1.622-0.393c4.418,0.019,8.839,0.011,13.259,0.011V40.165z"/>
	<path fill-rule="evenodd" clip-rule="evenodd" fill="#27348B" d="M583.905,36.907c2.31-0.046,3.189,0.928,3.183,2.707
		c-0.006,2.108-0.702,3.881-3.078,4.085c-2.223,0.19-3.191-1.445-3.158-3.305C580.89,38.352,582.369,37.233,583.905,36.907"/>
	<path fill-rule="evenodd" clip-rule="evenodd" fill="#27348B" d="M592.574,40.807c-0.043,1.317-0.462,1.987-1.557,1.925
		c-1.298-0.071-1.794-0.917-1.71-2.094c0.067-0.912,0.505-1.814,1.526-1.719C592.006,39.027,592.482,39.993,592.574,40.807"/>
	<path fill-rule="evenodd" clip-rule="evenodd" fill="#27348B" d="M596.615,42.385c-0.911-0.081-1.529-0.449-1.546-1.398
		c-0.017-0.998,0.515-1.664,1.504-1.696c0.963-0.031,1.651,0.547,1.66,1.55C598.244,41.864,597.541,42.318,596.615,42.385"/>
</g>
</svg>
