<?xml version="1.0" encoding="utf-8"?>
<!-- Generator: Adobe Illustrator 17.0.0, SVG Export Plug-In . SVG Version: 6.00 Build 0)  -->
<!DOCTYPE svg PUBLIC "-//W3C//DTD SVG 1.1//EN" "http://www.w3.org/Graphics/SVG/1.1/DTD/svg11.dtd">
<svg version="1.1" id="Capa_1" xmlns="http://www.w3.org/2000/svg" xmlns:xlink="http://www.w3.org/1999/xlink" x="0px" y="0px"
	 width="651px" height="70px" viewBox="0 0 651 70" enable-background="new 0 0 651 70" xml:space="preserve">
<g>
	<path fill="#2F4DB1" d="M176.56,55.583h-11.988L141.4,30.705v24.879h-13.342V10.917h11.956l23.106,24.75v-24.75h13.438V55.583z"/>
	<path fill="#2F4DB1" d="M235.566,33.218c0,4.168-0.962,8.003-2.884,11.505c-1.923,3.502-4.786,6.284-8.588,8.347
		s-8.433,3.094-13.89,3.094c-5.522,0-10.195-1.074-14.019-3.223c-3.824-2.148-6.666-4.974-8.524-8.476
		c-1.858-3.501-2.788-7.251-2.788-11.247c0-4.017,0.923-7.771,2.771-11.263c1.848-3.491,4.689-6.305,8.524-8.443
		c3.835-2.138,8.513-3.207,14.035-3.207c4.125,0,7.804,0.612,11.038,1.837c3.233,1.225,5.892,2.884,7.976,4.979
		c2.083,2.095,3.663,4.533,4.737,7.315C235.029,27.219,235.566,30.146,235.566,33.218z M221.838,33.218
		c0-1.676-0.247-3.207-0.741-4.592c-0.495-1.386-1.241-2.589-2.24-3.609c-0.999-1.02-2.219-1.815-3.658-2.385
		c-1.439-0.569-3.105-0.854-4.995-0.854c-3.609,0-6.445,1.053-8.508,3.158c-2.062,2.106-3.094,4.866-3.094,8.282
		s1.036,6.183,3.11,8.298c2.073,2.116,4.903,3.174,8.492,3.174c2.47,0,4.576-0.488,6.316-1.466c1.74-0.978,3.062-2.331,3.964-4.061
		C221.387,37.435,221.838,35.453,221.838,33.218z"/>
	<path fill="#2F4DB1" d="M275.173,42.596c0,2.793-0.714,5.21-2.143,7.251c-1.429,2.042-3.421,3.604-5.978,4.689
		c-2.557,1.084-5.49,1.627-8.798,1.627c-0.924,0-2.058-0.06-3.4-0.177c-1.343-0.118-3.126-0.446-5.35-0.983
		c-2.224-0.537-4.539-1.332-6.945-2.385V41.662c2.256,1.397,4.474,2.557,6.655,3.48c2.18,0.924,4.517,1.386,7.009,1.386
		c2.299,0,3.787-0.381,4.463-1.144c0.677-0.762,1.015-1.477,1.015-2.143c0-1.203-0.58-2.218-1.74-3.045
		c-1.16-0.827-2.847-1.681-5.06-2.562c-2.449-1.031-4.598-2.154-6.445-3.368c-1.848-1.213-3.357-2.734-4.528-4.56
		c-1.171-1.826-1.756-3.985-1.756-6.478c0-2.406,0.591-4.581,1.772-6.526c1.181-1.944,2.986-3.497,5.414-4.657
		c2.428-1.16,5.393-1.74,8.895-1.74c2.492,0,4.796,0.242,6.913,0.725c2.116,0.483,3.862,1.026,5.237,1.627
		c1.375,0.602,2.32,1.075,2.836,1.418v10.474c-1.826-1.31-3.862-2.481-6.107-3.513c-2.245-1.031-4.646-1.547-7.203-1.547
		c-1.676,0-2.89,0.322-3.642,0.967c-0.752,0.645-1.128,1.439-1.128,2.385c0,0.881,0.375,1.644,1.128,2.288
		c0.752,0.645,2.095,1.429,4.028,2.353c3.437,1.611,6.188,3.062,8.25,4.351s3.679,2.777,4.85,4.463
		C274.587,37.983,275.173,40.083,275.173,42.596z"/>
	<path fill="#2F4DB1" d="M332.117,33.218c0,4.168-0.961,8.003-2.883,11.505c-1.924,3.502-4.787,6.284-8.589,8.347
		c-3.803,2.062-8.433,3.094-13.89,3.094c-5.522,0-10.195-1.074-14.019-3.223c-3.824-2.148-6.666-4.974-8.524-8.476
		c-1.858-3.501-2.788-7.251-2.788-11.247c0-4.017,0.923-7.771,2.771-11.263c1.848-3.491,4.689-6.305,8.524-8.443
		c3.835-2.138,8.513-3.207,14.035-3.207c4.125,0,7.804,0.612,11.038,1.837c3.233,1.225,5.892,2.884,7.977,4.979
		c2.084,2.095,3.662,4.533,4.736,7.315C331.58,27.219,332.117,30.146,332.117,33.218z M318.389,33.218
		c0-1.676-0.247-3.207-0.741-4.592c-0.495-1.386-1.241-2.589-2.24-3.609c-0.999-1.02-2.219-1.815-3.658-2.385
		c-1.439-0.569-3.105-0.854-4.995-0.854c-3.609,0-6.445,1.053-8.508,3.158c-2.062,2.106-3.094,4.866-3.094,8.282
		s1.036,6.183,3.11,8.298c2.073,2.116,4.903,3.174,8.492,3.174c2.47,0,4.576-0.488,6.316-1.466c1.74-0.978,3.062-2.331,3.964-4.061
		C317.938,37.435,318.389,35.453,318.389,33.218z"/>
	<path fill="#2F4DB1" d="M379.563,21.778h-16.371v33.806h-13.438V21.778h-16.371v-10.86h46.181V21.778z"/>
	<path fill="#2F4DB1" d="M430.674,55.583h-14.47l-3.513-7.928c-1.289-2.9-2.449-5.022-3.48-6.365
		c-1.031-1.342-2.036-2.202-3.014-2.578c-0.978-0.375-2.239-0.564-3.786-0.564h-1.515v17.435h-13.471V10.917h22.913
		c3.695,0,6.725,0.752,9.088,2.256c2.363,1.504,4.065,3.331,5.108,5.479c1.041,2.148,1.562,4.189,1.562,6.123
		c0,2.256-0.436,4.163-1.305,5.72c-0.871,1.558-1.789,2.691-2.756,3.4s-2.052,1.386-3.255,2.03c1.439,0.838,2.626,1.832,3.562,2.981
		c0.934,1.149,2.207,3.476,3.818,6.977L430.674,55.583z M412.37,25.033c0-2.062-0.677-3.501-2.03-4.318
		c-1.354-0.816-3.556-1.225-6.606-1.225h-2.836v10.764h2.9c3.287,0,5.537-0.359,6.752-1.08
		C411.762,28.454,412.37,27.074,412.37,25.033z"/>
	<path fill="#2F4DB1" d="M484.589,33.218c0,4.168-0.962,8.003-2.884,11.505c-1.924,3.502-4.786,6.284-8.589,8.347
		s-8.433,3.094-13.89,3.094c-5.521,0-10.194-1.074-14.019-3.223c-3.824-2.148-6.666-4.974-8.524-8.476
		c-1.858-3.501-2.787-7.251-2.787-11.247c0-4.017,0.924-7.771,2.771-11.263c1.848-3.491,4.689-6.305,8.523-8.443
		c3.836-2.138,8.514-3.207,14.035-3.207c4.125,0,7.804,0.612,11.037,1.837s5.893,2.884,7.977,4.979s3.663,4.533,4.737,7.315
		C484.052,27.219,484.589,30.146,484.589,33.218z M470.861,33.218c0-1.676-0.247-3.207-0.741-4.592s-1.24-2.589-2.24-3.609
		c-0.998-1.02-2.218-1.815-3.657-2.385c-1.439-0.569-3.104-0.854-4.995-0.854c-3.609,0-6.445,1.053-8.508,3.158
		c-2.062,2.106-3.094,4.866-3.094,8.282s1.036,6.183,3.109,8.298c2.073,2.116,4.904,3.174,8.492,3.174
		c2.471,0,4.576-0.488,6.316-1.466c1.74-0.978,3.062-2.331,3.964-4.061C470.41,37.435,470.861,35.453,470.861,33.218z"/>
	<path fill="#2F4DB1" d="M524.196,42.596c0,2.793-0.715,5.21-2.144,7.251c-1.429,2.042-3.421,3.604-5.978,4.689
		s-5.489,1.627-8.798,1.627c-0.924,0-2.058-0.06-3.4-0.177c-1.343-0.118-3.125-0.446-5.35-0.983
		c-2.223-0.537-4.538-1.332-6.944-2.385V41.662c2.256,1.397,4.474,2.557,6.655,3.48c2.18,0.924,4.517,1.386,7.009,1.386
		c2.299,0,3.786-0.381,4.464-1.144c0.676-0.762,1.015-1.477,1.015-2.143c0-1.203-0.58-2.218-1.74-3.045
		c-1.16-0.827-2.847-1.681-5.06-2.562c-2.449-1.031-4.598-2.154-6.445-3.368c-1.848-1.213-3.357-2.734-4.527-4.56
		c-1.172-1.826-1.757-3.985-1.757-6.478c0-2.406,0.591-4.581,1.772-6.526c1.182-1.944,2.986-3.497,5.414-4.657
		s5.393-1.74,8.895-1.74c2.492,0,4.796,0.242,6.912,0.725s3.862,1.026,5.237,1.627c1.375,0.602,2.32,1.075,2.836,1.418v10.474
		c-1.826-1.31-3.862-2.481-6.106-3.513c-2.246-1.031-4.646-1.547-7.203-1.547c-1.676,0-2.89,0.322-3.642,0.967
		s-1.128,1.439-1.128,2.385c0,0.881,0.376,1.644,1.128,2.288s2.095,1.429,4.028,2.353c3.438,1.611,6.188,3.062,8.25,4.351
		s3.679,2.777,4.85,4.463C523.61,37.983,524.196,40.083,524.196,42.596z"/>
</g>
<path fill-rule="evenodd" clip-rule="evenodd" fill="#2F4DB1" d="M85.755,45.965c8.462-0.65,14.674-4.056,20.397-8.622
	c2.474-1.972,5.071-3.578,8.125-0.953c0.891,0.767,1.683,1.593,1.15,2.887c-0.27,0.65-0.739,1.289-1.54,1.179
	c-1.201-0.164-1.739-0.975-1.814-2.177c-0.04-0.679-0.429-1.198-1.194-0.991c-0.732,0.199-0.81,0.835-0.65,1.479
	c0.407,1.625,1.317,2.884,2.989,3.286c1.745,0.419,2.723-0.809,3.558-2.06c0.932-1.394,0.434-2.588-0.593-3.743
	c-3.226-3.629-5.95-3.921-9.921-0.964c-5.232,3.896-10.561,7.51-17.192,8.745c-5.562,1.036-11.259-2.307-12.192-7.461
	c-0.328-1.809,0.286-3.214,1.649-4.378c1.221-1.044,2.524-0.999,3.877-0.34c1.246,0.606,2.291,1.428,1.921,2.997
	c-0.366,1.567-1.508,2.17-3.096,2.204c-0.839,0.017-2.41-0.717-2.37,0.549c0.043,1.372,1.748,1.531,2.935,1.336
	c2.196-0.364,3.845-1.518,4.425-3.839c0.509-2.038-0.495-3.478-2.104-4.316c-2.024-1.053-4.216-1.651-6.326,0.044
	c-4.138,3.32-2.7,10.667,2.749,13.371C82.449,45.147,84.45,46.143,85.755,45.965"/>
<path fill-rule="evenodd" clip-rule="evenodd" fill="#2F4DB1" d="M31.292,40.165c-4.336,0-8.671-0.017-13.007,0.019
	c-0.603,0.006-1.417-0.419-1.781,0.52c0.538,0.201,1.071,0.563,1.616,0.578c5.456,0.148,10.912,0.229,16.368,0.354
	c3.281,0.074,6.598-0.326,9.817,0.614c0.805,0.237,1.398,0.032,1.786-0.61c0.184-0.307,0.235-0.858,0.082-1.167
	c-0.336-0.685-1.027-0.395-1.622-0.393c-4.418,0.019-8.839,0.011-13.259,0.011V40.165z"/>
<path fill-rule="evenodd" clip-rule="evenodd" fill="#2F4DB1" d="M67.095,36.907c-2.311-0.046-3.189,0.928-3.183,2.707
	c0.006,2.108,0.702,3.881,3.078,4.085c2.223,0.19,3.191-1.445,3.158-3.305C70.11,38.352,68.631,37.233,67.095,36.907"/>
<path fill-rule="evenodd" clip-rule="evenodd" fill="#2F4DB1" d="M58.426,40.807c0.043,1.317,0.462,1.987,1.557,1.925
	c1.298-0.071,1.794-0.917,1.71-2.094c-0.067-0.912-0.505-1.814-1.526-1.719C58.994,39.027,58.518,39.993,58.426,40.807"/>
<path fill-rule="evenodd" clip-rule="evenodd" fill="#2F4DB1" d="M54.385,42.385c0.911-0.081,1.529-0.449,1.546-1.398
	c0.017-0.998-0.515-1.664-1.504-1.696c-0.963-0.031-1.651,0.547-1.66,1.55C52.756,41.864,53.459,42.318,54.385,42.385"/>
<path fill-rule="evenodd" clip-rule="evenodd" fill="#2F4DB1" d="M565.245,45.965c-8.462-0.65-14.674-4.056-20.396-8.622
	c-2.475-1.972-5.072-3.578-8.125-0.953c-0.892,0.767-1.684,1.593-1.151,2.887c0.27,0.65,0.739,1.289,1.54,1.179
	c1.201-0.164,1.739-0.975,1.814-2.177c0.04-0.679,0.429-1.198,1.194-0.991c0.732,0.199,0.811,0.835,0.65,1.479
	c-0.407,1.625-1.317,2.884-2.989,3.286c-1.745,0.419-2.723-0.809-3.558-2.06c-0.932-1.394-0.434-2.588,0.593-3.743
	c3.226-3.629,5.949-3.921,9.921-0.964c5.232,3.896,10.561,7.51,17.192,8.745c5.562,1.036,11.259-2.307,12.192-7.461
	c0.328-1.809-0.286-3.214-1.648-4.378c-1.222-1.044-2.525-0.999-3.878-0.34c-1.245,0.606-2.291,1.428-1.921,2.997
	c0.366,1.567,1.508,2.17,3.096,2.204c0.839,0.017,2.411-0.717,2.37,0.549c-0.042,1.372-1.748,1.531-2.935,1.336
	c-2.196-0.364-3.845-1.518-4.425-3.839c-0.509-2.038,0.495-3.478,2.104-4.316c2.024-1.053,4.216-1.651,6.326,0.044
	c4.138,3.32,2.7,10.667-2.749,13.371C568.551,45.147,566.55,46.143,565.245,45.965"/>
<path fill-rule="evenodd" clip-rule="evenodd" fill="#2F4DB1" d="M619.708,40.165c4.336,0,8.671-0.017,13.007,0.019
	c0.603,0.006,1.417-0.419,1.781,0.52c-0.538,0.201-1.071,0.563-1.616,0.578c-5.456,0.148-10.912,0.229-16.368,0.354
	c-3.281,0.074-6.598-0.326-9.817,0.614c-0.805,0.237-1.398,0.032-1.786-0.61c-0.184-0.307-0.235-0.858-0.082-1.167
	c0.336-0.685,1.027-0.395,1.622-0.393c4.418,0.019,8.839,0.011,13.259,0.011V40.165z"/>
<path fill-rule="evenodd" clip-rule="evenodd" fill="#2F4DB1" d="M583.905,36.907c2.31-0.046,3.189,0.928,3.183,2.707
	c-0.006,2.108-0.702,3.881-3.078,4.085c-2.223,0.19-3.191-1.445-3.158-3.305C580.89,38.352,582.369,37.233,583.905,36.907"/>
<path fill-rule="evenodd" clip-rule="evenodd" fill="#2F4DB1" d="M592.574,40.807c-0.043,1.317-0.462,1.987-1.557,1.925
	c-1.298-0.071-1.794-0.917-1.71-2.094c0.067-0.912,0.505-1.814,1.526-1.719C592.006,39.027,592.482,39.993,592.574,40.807"/>
<path fill-rule="evenodd" clip-rule="evenodd" fill="#2F4DB1" d="M596.615,42.385c-0.911-0.081-1.529-0.449-1.546-1.398
	c-0.017-0.998,0.515-1.664,1.504-1.696c0.963-0.031,1.651,0.547,1.66,1.55C598.244,41.864,597.541,42.318,596.615,42.385"/>
</svg>
