<?xml version="1.0" encoding="utf-8"?>
<!-- Generator: Adobe Illustrator 17.0.0, SVG Export Plug-In . SVG Version: 6.00 Build 0)  -->
<!DOCTYPE svg PUBLIC "-//W3C//DTD SVG 1.1//EN" "http://www.w3.org/Graphics/SVG/1.1/DTD/svg11.dtd">
<svg version="1.1" id="Capa_1" xmlns="http://www.w3.org/2000/svg" xmlns:xlink="http://www.w3.org/1999/xlink" x="0px" y="0px"
	 width="700px" height="70px" viewBox="-773 318.534 700 70" enable-background="new -773 318.534 700 70" xml:space="preserve">
<g>
	<g>
		<path fill="#FFFFFF" d="M-609.595,341.113c0,1.843-0.285,3.645-0.855,5.405c-0.57,1.761-1.49,3.401-2.76,4.921
			c-1.271,1.52-2.986,2.754-5.15,3.697c-2.163,0.947-4.708,1.419-7.634,1.419h-8.845v18.674h-13.493v-49.774h22.338
			c2.926,0,5.471,0.479,7.634,1.436s3.878,2.203,5.15,3.735c1.27,1.532,2.19,3.196,2.76,4.991
			C-609.88,337.414-609.595,339.246-609.595,341.113z M-623.347,341.185c0-2.37-0.63-3.992-1.889-4.866
			c-1.259-0.873-3.514-1.31-6.762-1.31h-2.841v11.995h2.905c2.238,0,3.959-0.156,5.165-0.467c1.205-0.311,2.076-0.886,2.614-1.724
			C-623.616,343.974-623.347,342.765-623.347,341.185z"/>
		<path fill="#FFFFFF" d="M-558.785,375.23h-14.494l-3.519-8.835c-1.291-3.232-2.453-5.595-3.486-7.093
			c-1.033-1.495-2.039-2.453-3.019-2.873c-0.98-0.418-2.243-0.627-3.792-0.627h-1.518v19.429h-13.494v-49.775h22.951
			c3.7,0,6.735,0.838,9.103,2.514c2.367,1.676,4.072,3.711,5.115,6.106c1.044,2.395,1.566,4.668,1.566,6.823
			c0,2.514-0.437,4.639-1.308,6.375s-1.791,2.998-2.76,3.788c-0.969,0.79-2.055,1.544-3.26,2.262c1.44,0.934,2.63,2.042,3.567,3.321
			c0.937,1.282,2.212,3.874,3.825,7.776L-558.785,375.23z M-577.121,341.185c0-2.298-0.678-3.902-2.033-4.812
			c-1.355-0.909-3.563-1.365-6.617-1.365h-2.841v11.995h2.905c3.292,0,5.546-0.4,6.762-1.203
			C-577.73,344.998-577.121,343.459-577.121,341.185z"/>
		<path fill="#FFFFFF" d="M-504.78,350.307c0,4.645-0.964,8.918-2.89,12.821c-1.926,3.902-4.793,7.003-8.602,9.302
			c-3.809,2.299-8.447,3.448-13.913,3.448c-5.531,0-10.212-1.197-14.042-3.592c-3.83-2.394-6.677-5.543-8.538-9.445
			c-1.861-3.902-2.792-8.08-2.792-12.533c0-4.478,0.925-8.66,2.776-12.552c1.851-3.889,4.696-7.026,8.537-9.409
			c3.841-2.381,8.527-3.573,14.058-3.573c4.132,0,7.817,0.682,11.055,2.047c3.238,1.365,5.903,3.215,7.99,5.548
			c2.086,2.336,3.668,5.053,4.745,8.153C-505.319,343.621-504.78,346.882-504.78,350.307z M-518.532,350.307
			c0-1.868-0.247-3.574-0.742-5.117c-0.496-1.546-1.243-2.885-2.244-4.022c-1.001-1.137-2.223-2.023-3.663-2.658
			c-1.441-0.634-3.11-0.952-5.003-0.952c-3.615,0-6.456,1.173-8.522,3.519s-3.099,5.422-3.099,9.229s1.038,6.89,3.114,9.248
			c2.076,2.358,4.911,3.537,8.506,3.537c2.474,0,4.584-0.544,6.327-1.635c1.743-1.089,3.067-2.596,3.971-4.525
			C-518.984,355.005-518.532,352.796-518.532,350.307z"/>
		<path fill="#FFFFFF" d="M-450.389,351.24c0,5.099-0.835,9.194-2.502,12.281c-1.669,3.088-3.631,5.591-5.891,7.505
			c-3.206,2.801-7.695,4.202-13.46,4.202h-24.145v-49.773h18.593c2.797,0,5.192,0.162,7.182,0.486
			c1.99,0.322,3.781,0.778,5.375,1.365c1.593,0.586,2.948,1.245,4.068,1.974c1.119,0.731,2.119,1.514,3.001,2.352
			c1.528,1.388,2.868,3.029,4.019,4.92c1.152,1.891,2.065,4.082,2.745,6.571C-450.729,345.614-450.389,348.319-450.389,351.24z
			 M-464.108,350.593c0-4.046-0.694-7.2-2.082-9.463c-1.388-2.261-3.056-3.777-5.003-4.542s-3.934-1.149-5.955-1.149h-5.746v29.484
			h5.746c3.529,0,6.585-0.934,9.167-2.801C-465.399,360.254-464.108,356.411-464.108,350.593z"/>
		<path fill="#FFFFFF" d="M-395.447,352.928c0,4.261-0.716,7.895-2.147,10.898c-1.432,3.005-3.326,5.381-5.681,7.129
			c-2.358,1.747-4.897,3.004-7.618,3.771c-2.724,0.767-5.44,1.149-8.152,1.149c-3.787,0-7.472-0.719-11.056-2.155
			c-3.582-1.436-6.579-3.878-8.99-7.326c-2.411-3.448-3.615-7.936-3.615-13.467v-27.471h13.46v23.594
			c0,3.28,0.425,5.992,1.274,8.135c0.849,2.143,2.034,3.711,3.551,4.704c1.518,0.995,3.309,1.491,5.375,1.491
			c1.98,0,3.734-0.49,5.262-1.472c1.528-0.982,2.717-2.537,3.567-4.668c0.85-2.131,1.275-4.836,1.275-8.116v-23.668h13.493v27.472
			H-395.447z"/>
		<path fill="#FFFFFF" d="M-344.8,371.494c-1.851,1.078-3.744,1.939-5.681,2.585s-3.891,1.108-5.859,1.382
			c-1.97,0.275-4.009,0.413-6.117,0.413c-3.896,0-7.387-0.598-10.474-1.795c-3.089-1.197-5.769-2.962-8.038-5.298
			c-2.271-2.333-3.97-5.063-5.101-8.188c-1.129-3.124-1.694-6.554-1.694-10.288c0-4.286,0.667-8.038,2.001-11.26
			c1.334-3.219,3.2-5.895,5.601-8.026c2.399-2.131,5.132-3.704,8.2-4.722c3.066-1.017,6.299-1.527,9.7-1.527
			c5.078,0,10.835,1.257,17.27,3.771v13.215c-2.217-1.532-4.406-2.807-6.569-3.824c-2.164-1.017-4.708-1.527-7.635-1.527
			c-2.604,0-5.035,0.575-7.295,1.724c-2.26,1.149-4.078,2.789-5.455,4.92c-1.377,2.131-2.065,4.62-2.065,7.47
			c0,2.514,0.603,4.819,1.808,6.912c1.205,2.096,2.878,3.76,5.02,4.992c2.141,1.232,4.557,1.849,7.246,1.849
			c2.174,0,4.229-0.293,6.165-0.88c1.937-0.585,3.568-1.238,4.89-1.957c1.324-0.719,2.685-1.568,4.084-2.55v12.607H-344.8z"/>
		<path fill="#FFFFFF" d="M-292.828,337.557h-16.398v37.672h-13.46v-37.672h-16.398v-12.102h46.258v12.102H-292.828z"/>
		<path fill="#FFFFFF" d="M-237.081,350.307c0,4.645-0.964,8.918-2.889,12.821c-1.927,3.902-4.794,7.003-8.603,9.302
			c-3.809,2.299-8.447,3.448-13.913,3.448c-5.53,0-10.211-1.197-14.042-3.592c-3.831-2.395-6.677-5.543-8.538-9.445
			c-1.861-3.902-2.792-8.08-2.792-12.533c0-4.478,0.926-8.66,2.776-12.552c1.851-3.889,4.697-7.026,8.537-9.409
			c3.842-2.381,8.528-3.573,14.058-3.573c4.132,0,7.817,0.682,11.055,2.047c3.238,1.365,5.903,3.215,7.99,5.548
			c2.087,2.336,3.669,5.053,4.745,8.153C-237.621,343.622-237.081,346.882-237.081,350.307z M-250.832,350.307
			c0-1.868-0.247-3.574-0.742-5.117c-0.495-1.546-1.242-2.885-2.244-4.022c-1-1.138-2.222-2.023-3.663-2.658
			c-1.441-0.635-3.109-0.952-5.003-0.952c-3.615,0-6.456,1.173-8.522,3.519c-2.066,2.346-3.099,5.422-3.099,9.229
			s1.038,6.89,3.114,9.248c2.076,2.358,4.912,3.537,8.506,3.537c2.475,0,4.584-0.544,6.327-1.635
			c1.743-1.089,3.067-2.596,3.971-4.525C-251.284,355.005-250.832,352.796-250.832,350.307z"/>
		<path fill="#FFFFFF" d="M-197.407,360.756c0,3.112-0.716,5.806-2.148,8.08c-1.431,2.274-3.427,4.016-5.988,5.225
			c-2.561,1.208-5.498,1.813-8.813,1.813c-0.926,0-2.061-0.067-3.406-0.198c-1.344-0.131-3.13-0.496-5.359-1.094
			c-2.227-0.598-4.546-1.484-6.956-2.658v-12.209c2.26,1.556,4.481,2.849,6.666,3.878c2.184,1.03,4.525,1.544,7.021,1.544
			c2.303,0,3.792-0.425,4.471-1.275c0.677-0.85,1.017-1.647,1.017-2.389c0-1.341-0.581-2.472-1.743-3.394
			c-1.162-0.92-2.852-1.873-5.068-2.855c-2.453-1.149-4.606-2.399-6.456-3.753c-1.851-1.352-3.363-3.046-4.535-5.081
			c-1.174-2.035-1.76-4.441-1.76-7.219c0-2.681,0.592-5.105,1.775-7.271s2.991-3.897,5.423-5.19c2.432-1.293,5.402-1.939,8.91-1.939
			c2.496,0,4.804,0.269,6.924,0.809c2.12,0.537,3.868,1.142,5.246,1.813c1.377,0.671,2.324,1.197,2.841,1.58v11.672
			c-1.829-1.461-3.868-2.765-6.116-3.915c-2.25-1.149-4.654-1.724-7.215-1.724c-1.679,0-2.895,0.359-3.648,1.078
			c-0.753,0.719-1.13,1.604-1.13,2.658c0,0.982,0.377,1.832,1.13,2.55c0.753,0.718,2.098,1.592,4.035,2.622
			c3.444,1.795,6.198,3.412,8.264,4.849c2.065,1.436,3.685,3.095,4.858,4.975C-197.994,355.617-197.407,357.956-197.407,360.756z"/>
	</g>
	<path fill="#FFFFFF" d="M-699.077,359.86c8.476-0.724,14.699-4.52,20.431-9.608c2.478-2.198,5.079-3.987,8.139-1.062
		c0.892,0.855,1.686,1.775,1.152,3.217c-0.27,0.724-0.74,1.436-1.543,1.314c-1.203-0.183-1.742-1.086-1.817-2.426
		c-0.04-0.757-0.43-1.335-1.196-1.104c-0.733,0.222-0.811,0.931-0.651,1.648c0.408,1.811,1.319,3.214,2.994,3.662
		c1.748,0.467,2.729-0.902,3.564-2.296c0.934-1.553,0.435-2.884-0.594-4.171c-3.231-4.044-5.959-4.369-9.938-1.074
		c-5.241,4.342-10.579,8.369-17.221,9.745c-5.571,1.154-11.278-2.571-12.212-8.314c-0.329-2.016,0.286-3.582,1.652-4.879
		c1.223-1.163,2.528-1.113,3.883-0.379c1.248,0.675,2.295,1.591,1.924,3.34c-0.367,1.746-1.51,2.418-3.101,2.456
		c-0.84,0.019-2.414-0.799-2.374,0.612c0.043,1.529,1.751,1.706,2.94,1.489c2.2-0.406,3.851-1.692,4.432-4.278
		c0.51-2.271-0.496-3.876-2.108-4.81c-2.027-1.173-4.223-1.84-6.337,0.049c-4.145,3.7-2.704,11.887,2.754,14.9
		C-702.389,358.949-700.384,360.059-699.077,359.86"/>
	<path fill="#FFFFFF" d="M-753.631,353.396c-4.343,0-8.685-0.019-13.029,0.021c-0.604,0.007-1.419-0.467-1.784,0.579
		c0.539,0.224,1.073,0.627,1.619,0.644c5.465,0.165,10.93,0.255,16.395,0.395c3.286,0.082,6.609-0.363,9.833,0.684
		c0.806,0.264,1.4,0.036,1.789-0.68c0.184-0.342,0.235-0.956,0.082-1.3c-0.337-0.763-1.028-0.44-1.625-0.438
		c-4.425,0.021-8.854,0.012-13.281,0.012V353.396z"/>
	<path fill="#FFFFFF" d="M-717.768,349.765c-2.314-0.051-3.194,1.034-3.188,3.017c0.006,2.349,0.703,4.325,3.083,4.552
		c2.227,0.212,3.196-1.61,3.163-3.683C-714.748,351.377-716.23,350.13-717.768,349.765"/>
	<path fill="#FFFFFF" d="M-726.452,354.112c0.043,1.468,0.463,2.214,1.56,2.145c1.3-0.079,1.797-1.022,1.713-2.333
		c-0.067-1.016-0.506-2.021-1.529-1.916C-725.883,352.129-726.36,353.205-726.452,354.112"/>
	<path fill="#FFFFFF" d="M-730.5,355.871c0.913-0.09,1.532-0.5,1.549-1.558c0.017-1.112-0.516-1.854-1.506-1.89
		c-0.965-0.035-1.654,0.61-1.663,1.727C-732.131,355.29-731.427,355.795-730.5,355.871"/>
	<path fill="#FFFFFF" d="M-145.153,359.86c-8.476-0.724-14.699-4.52-20.43-9.608c-2.479-2.198-5.08-3.987-8.139-1.062
		c-0.894,0.855-1.687,1.775-1.153,3.217c0.27,0.724,0.74,1.436,1.543,1.314c1.203-0.183,1.742-1.086,1.817-2.426
		c0.04-0.757,0.43-1.335,1.196-1.104c0.733,0.222,0.812,0.931,0.651,1.648c-0.408,1.811-1.319,3.214-2.994,3.662
		c-1.748,0.467-2.729-0.902-3.564-2.296c-0.934-1.553-0.435-2.884,0.594-4.171c3.231-4.044,5.959-4.369,9.938-1.074
		c5.241,4.342,10.579,8.369,17.221,9.745c5.571,1.154,11.278-2.571,12.212-8.314c0.329-2.016-0.286-3.582-1.651-4.879
		c-1.224-1.163-2.529-1.113-3.884-0.379c-1.248,0.675-2.295,1.591-1.924,3.34c0.367,1.746,1.511,2.418,3.101,2.456
		c0.84,0.019,2.415-0.799,2.374,0.612c-0.042,1.529-1.751,1.706-2.94,1.489c-2.2-0.406-3.851-1.692-4.432-4.278
		c-0.51-2.271,0.496-3.876,2.108-4.81c2.027-1.173,4.223-1.84,6.337,0.049c4.145,3.7,2.705,11.887-2.754,14.9
		C-141.841,358.949-143.846,360.059-145.153,359.86"/>
	<path fill="#FFFFFF" d="M-90.599,353.396c4.343,0,8.685-0.019,13.029,0.021c0.604,0.007,1.419-0.467,1.784,0.579
		c-0.539,0.224-1.073,0.627-1.619,0.644c-5.465,0.165-10.93,0.255-16.395,0.395c-3.286,0.082-6.609-0.363-9.833,0.684
		c-0.806,0.264-1.4,0.036-1.789-0.68c-0.184-0.342-0.235-0.956-0.082-1.3c0.337-0.763,1.029-0.44,1.625-0.438
		c4.425,0.021,8.854,0.012,13.281,0.012V353.396z"/>
	<path fill="#FFFFFF" d="M-126.462,349.765c2.314-0.051,3.194,1.034,3.188,3.017c-0.006,2.349-0.703,4.325-3.083,4.552
		c-2.227,0.212-3.196-1.61-3.163-3.683C-129.482,351.377-128,350.13-126.462,349.765"/>
	<path fill="#FFFFFF" d="M-117.778,354.112c-0.043,1.468-0.463,2.214-1.56,2.145c-1.3-0.079-1.797-1.022-1.713-2.333
		c0.067-1.016,0.506-2.021,1.529-1.916C-118.347,352.129-117.87,353.205-117.778,354.112"/>
	<path fill="#FFFFFF" d="M-113.731,355.871c-0.913-0.09-1.532-0.5-1.549-1.558c-0.018-1.112,0.516-1.854,1.507-1.89
		c0.965-0.035,1.654,0.61,1.663,1.727C-112.099,355.29-112.803,355.795-113.731,355.871"/>
</g>
</svg>
