<?xml version="1.0" encoding="utf-8"?>
<!-- Generator: Adobe Illustrator 17.0.0, SVG Export Plug-In . SVG Version: 6.00 Build 0)  -->
<!DOCTYPE svg PUBLIC "-//W3C//DTD SVG 1.1//EN" "http://www.w3.org/Graphics/SVG/1.1/DTD/svg11.dtd">
<svg version="1.1" id="Capa_1" xmlns="http://www.w3.org/2000/svg" xmlns:xlink="http://www.w3.org/1999/xlink" x="0px" y="0px"
	 width="650.923px" height="71.941px" viewBox="0 0 650.923 71.941" enable-background="new 0 0 650.923 71.941"
	 xml:space="preserve">
<g>
	<text transform="matrix(1 0 0 1 133.3069 56.1197)"><tspan x="0" y="0" fill="#FFFFFF" font-family="'GillSans-Bold'" font-size="66">SE</tspan><tspan x="83.08" y="0" fill="#FFFFFF" font-family="'GillSans-Bold'" font-size="66">R</tspan><tspan x="131.527" y="0" fill="#FFFFFF" font-family="'GillSans-Bold'" font-size="66">VICIOS</tspan></text>
	<path fill-rule="evenodd" clip-rule="evenodd" fill="#FFFFFF" d="M88.254,42.327c8.462-0.65,14.674-4.056,20.397-8.622
		c2.474-1.972,5.071-3.578,8.125-0.953c0.891,0.767,1.683,1.593,1.15,2.887c-0.27,0.65-0.739,1.289-1.54,1.179
		c-1.201-0.164-1.739-0.975-1.814-2.177c-0.04-0.679-0.429-1.198-1.194-0.991c-0.732,0.199-0.81,0.835-0.65,1.479
		c0.407,1.625,1.317,2.884,2.989,3.286c1.745,0.419,2.724-0.809,3.558-2.06c0.932-1.394,0.434-2.588-0.593-3.743
		c-3.226-3.629-5.949-3.921-9.921-0.964c-5.232,3.896-10.561,7.51-17.192,8.745c-5.562,1.036-11.259-2.307-12.192-7.461
		c-0.328-1.809,0.286-3.214,1.649-4.378c1.221-1.044,2.524-0.999,3.877-0.34c1.246,0.606,2.291,1.428,1.921,2.997
		c-0.366,1.567-1.508,2.17-3.096,2.204c-0.839,0.017-2.41-0.717-2.37,0.549c0.043,1.372,1.748,1.531,2.935,1.336
		c2.196-0.364,3.845-1.518,4.425-3.839c0.509-2.038-0.495-3.478-2.104-4.316c-2.024-1.053-4.216-1.651-6.326,0.044
		c-4.138,3.32-2.7,10.667,2.749,13.371C84.947,41.509,86.948,42.505,88.254,42.327"/>
	<path fill-rule="evenodd" clip-rule="evenodd" fill="#FFFFFF" d="M33.791,36.527c-4.336,0-8.671-0.017-13.007,0.019
		c-0.603,0.006-1.417-0.419-1.781,0.52c0.538,0.201,1.071,0.563,1.616,0.578c5.456,0.148,10.912,0.229,16.368,0.354
		c3.281,0.074,6.598-0.326,9.817,0.614c0.805,0.237,1.398,0.032,1.786-0.61c0.184-0.307,0.235-0.858,0.082-1.167
		c-0.336-0.685-1.026-0.395-1.622-0.393c-4.418,0.019-8.839,0.011-13.259,0.011V36.527z"/>
	<path fill-rule="evenodd" clip-rule="evenodd" fill="#FFFFFF" d="M69.593,33.269c-2.31-0.046-3.189,0.928-3.183,2.707
		c0.006,2.108,0.702,3.881,3.078,4.085c2.223,0.19,3.191-1.445,3.158-3.305C72.608,34.714,71.129,33.595,69.593,33.269"/>
	<path fill-rule="evenodd" clip-rule="evenodd" fill="#FFFFFF" d="M60.924,37.17c0.043,1.317,0.462,1.987,1.557,1.925
		c1.298-0.071,1.794-0.917,1.71-2.094c-0.067-0.912-0.505-1.814-1.526-1.719C61.492,35.39,61.016,36.356,60.924,37.17"/>
	<path fill-rule="evenodd" clip-rule="evenodd" fill="#FFFFFF" d="M56.883,38.748c0.911-0.081,1.529-0.449,1.546-1.398
		c0.017-0.998-0.515-1.664-1.504-1.696c-0.963-0.031-1.651,0.547-1.66,1.55C55.254,38.227,55.957,38.68,56.883,38.748"/>
	<path fill-rule="evenodd" clip-rule="evenodd" fill="#FFFFFF" d="M557.743,42.327c-8.462-0.65-14.674-4.056-20.396-8.622
		c-2.475-1.972-5.072-3.578-8.125-0.953c-0.892,0.767-1.684,1.593-1.151,2.887c0.27,0.65,0.739,1.289,1.54,1.179
		c1.201-0.164,1.739-0.975,1.814-2.177c0.04-0.679,0.429-1.198,1.194-0.991c0.732,0.199,0.811,0.835,0.65,1.479
		c-0.407,1.625-1.317,2.884-2.989,3.286c-1.745,0.419-2.724-0.809-3.558-2.06c-0.932-1.394-0.434-2.588,0.593-3.743
		c3.226-3.629,5.949-3.921,9.921-0.964c5.232,3.896,10.561,7.51,17.192,8.745c5.562,1.036,11.259-2.307,12.192-7.461
		c0.328-1.809-0.286-3.214-1.648-4.378c-1.222-1.044-2.525-0.999-3.878-0.34c-1.246,0.606-2.291,1.428-1.921,2.997
		c0.366,1.567,1.508,2.17,3.096,2.204c0.839,0.017,2.411-0.717,2.37,0.549c-0.042,1.372-1.748,1.531-2.935,1.336
		c-2.196-0.364-3.845-1.518-4.425-3.839c-0.509-2.038,0.495-3.478,2.104-4.316c2.024-1.053,4.216-1.651,6.326,0.044
		c4.138,3.32,2.7,10.667-2.749,13.371C561.049,41.509,559.048,42.505,557.743,42.327"/>
	<path fill-rule="evenodd" clip-rule="evenodd" fill="#FFFFFF" d="M612.206,36.527c4.336,0,8.671-0.017,13.007,0.019
		c0.603,0.006,1.417-0.419,1.781,0.52c-0.538,0.201-1.071,0.563-1.616,0.578c-5.456,0.148-10.912,0.229-16.368,0.354
		c-3.281,0.074-6.598-0.326-9.817,0.614c-0.805,0.237-1.398,0.032-1.786-0.61c-0.184-0.307-0.235-0.858-0.082-1.167
		c0.336-0.685,1.027-0.395,1.622-0.393c4.418,0.019,8.839,0.011,13.259,0.011V36.527z"/>
	<path fill-rule="evenodd" clip-rule="evenodd" fill="#FFFFFF" d="M576.404,33.269c2.31-0.046,3.189,0.928,3.183,2.707
		c-0.006,2.108-0.702,3.881-3.078,4.085c-2.223,0.19-3.191-1.445-3.158-3.305C573.389,34.714,574.868,33.595,576.404,33.269"/>
	<path fill-rule="evenodd" clip-rule="evenodd" fill="#FFFFFF" d="M585.073,37.17c-0.043,1.317-0.462,1.987-1.557,1.925
		c-1.298-0.071-1.794-0.917-1.71-2.094c0.067-0.912,0.505-1.814,1.526-1.719C584.505,35.39,584.981,36.356,585.073,37.17"/>
	<path fill-rule="evenodd" clip-rule="evenodd" fill="#FFFFFF" d="M589.114,38.748c-0.911-0.081-1.529-0.449-1.546-1.398
		c-0.018-0.998,0.515-1.664,1.504-1.696c0.963-0.031,1.651,0.547,1.66,1.55C590.743,38.227,590.04,38.68,589.114,38.748"/>
</g>
</svg>
