<?xml version="1.0" encoding="utf-8"?>
<!-- Generator: Adobe Illustrator 17.0.0, SVG Export Plug-In . SVG Version: 6.00 Build 0)  -->
<!DOCTYPE svg PUBLIC "-//W3C//DTD SVG 1.1//EN" "http://www.w3.org/Graphics/SVG/1.1/DTD/svg11.dtd">
<svg version="1.1" id="Capa_1" xmlns="http://www.w3.org/2000/svg" xmlns:xlink="http://www.w3.org/1999/xlink" x="0px" y="0px"
	 width="650.923px" height="71.941px" viewBox="0 0 650.923 71.941" enable-background="new 0 0 650.923 71.941"
	 xml:space="preserve">
<g>
	<g>
		<path fill="#FFFFFF" d="M170.142,43.133c0,2.793-0.714,5.21-2.143,7.251c-1.429,2.041-3.421,3.604-5.978,4.689
			c-2.557,1.084-5.49,1.627-8.798,1.627c-0.924,0-2.058-0.06-3.4-0.178c-1.343-0.118-3.126-0.445-5.35-0.982
			s-4.539-1.332-6.945-2.385V42.198c2.256,1.396,4.474,2.557,6.655,3.48c2.18,0.924,4.517,1.386,7.009,1.386
			c2.299,0,3.787-0.381,4.463-1.144s1.015-1.478,1.015-2.144c0-1.203-0.58-2.218-1.74-3.046c-1.16-0.826-2.847-1.681-5.06-2.562
			c-2.449-1.031-4.598-2.153-6.445-3.368c-1.848-1.213-3.357-2.733-4.528-4.56c-1.171-1.826-1.756-3.985-1.756-6.478
			c0-2.406,0.591-4.581,1.772-6.525c1.181-1.944,2.986-3.497,5.414-4.657c2.428-1.16,5.393-1.74,8.895-1.74
			c2.492,0,4.796,0.241,6.913,0.726c2.116,0.482,3.862,1.025,5.237,1.627c1.375,0.602,2.32,1.074,2.836,1.418v10.474
			c-1.826-1.311-3.862-2.481-6.107-3.513c-2.245-1.031-4.646-1.547-7.203-1.547c-1.676,0-2.89,0.322-3.642,0.967
			c-0.752,0.645-1.128,1.439-1.128,2.385c0,0.881,0.375,1.644,1.128,2.288c0.752,0.645,2.095,1.429,4.028,2.353
			c3.437,1.611,6.188,3.062,8.25,4.351s3.679,2.777,4.85,4.464C169.557,38.52,170.142,40.619,170.142,43.133z"/>
		<path fill="#FFFFFF" d="M212.971,56.12h-33.677V11.454h33.129v8.959h-19.658v8.186h18.756v8.991h-18.756v9.539h20.206V56.12z"/>
		<path fill="#FFFFFF" d="M265.243,56.12h-14.47l-3.513-7.928c-1.289-2.9-2.449-5.021-3.48-6.365
			c-1.031-1.342-2.036-2.201-3.013-2.578c-0.978-0.375-2.24-0.563-3.787-0.563h-1.515V56.12h-13.471V11.454h22.913
			c3.695,0,6.724,0.752,9.088,2.256c2.363,1.504,4.065,3.33,5.108,5.479c1.042,2.148,1.563,4.189,1.563,6.123
			c0,2.256-0.435,4.163-1.305,5.721s-1.789,2.69-2.755,3.399c-0.967,0.709-2.052,1.386-3.255,2.03
			c1.439,0.838,2.626,1.832,3.561,2.98c0.935,1.15,2.208,3.476,3.819,6.978L265.243,56.12z M246.938,25.569
			c0-2.062-0.677-3.502-2.03-4.318s-3.556-1.225-6.606-1.225h-2.836V30.79h2.9c3.287,0,5.538-0.359,6.751-1.08
			C246.33,28.991,246.938,27.61,246.938,25.569z"/>
		<path fill="#FFFFFF" d="M314.141,11.454L293.999,56.7h-8.895L265.35,11.454h14.019l10.216,25.781l10.506-25.781H314.141z"/>
		<path fill="#FFFFFF" d="M333.8,56.12h-13.471V11.454H333.8V56.12z"/>
		<path fill="#FFFFFF" d="M385.072,52.769c-1.848,0.967-3.738,1.74-5.672,2.32s-3.884,0.994-5.849,1.24
			c-1.967,0.247-4.002,0.371-6.107,0.371c-3.889,0-7.375-0.537-10.457-1.611c-3.084-1.074-5.759-2.658-8.025-4.754
			c-2.267-2.094-3.963-4.543-5.092-7.348c-1.127-2.803-1.691-5.881-1.691-9.232c0-3.846,0.666-7.213,1.998-10.104
			c1.332-2.889,3.195-5.29,5.592-7.202c2.395-1.912,5.123-3.324,8.186-4.237c3.061-0.913,6.289-1.37,9.684-1.37
			c5.07,0,10.817,1.128,17.241,3.384v11.859c-2.213-1.375-4.399-2.519-6.558-3.432c-2.16-0.913-4.7-1.37-7.622-1.37
			c-2.6,0-5.027,0.516-7.283,1.547s-4.071,2.503-5.446,4.415s-2.062,4.146-2.062,6.703c0,2.256,0.602,4.324,1.805,6.203
			c1.203,1.881,2.873,3.374,5.012,4.48c2.137,1.106,4.549,1.659,7.234,1.659c2.17,0,4.222-0.263,6.155-0.79
			c1.934-0.525,3.562-1.111,4.882-1.756c1.322-0.645,2.681-1.407,4.077-2.288V52.769z"/>
		<path fill="#FFFFFF" d="M407.663,56.12h-13.471V11.454h13.471V56.12z"/>
		<path fill="#FFFFFF" d="M466.734,33.755c0,4.168-0.962,8.003-2.884,11.505c-1.924,3.502-4.786,6.284-8.589,8.347
			s-8.433,3.094-13.89,3.094c-5.521,0-10.194-1.074-14.019-3.223s-6.666-4.974-8.524-8.476s-2.787-7.251-2.787-11.247
			c0-4.018,0.924-7.771,2.771-11.264c1.848-3.49,4.689-6.305,8.523-8.443c3.836-2.137,8.514-3.206,14.035-3.206
			c4.125,0,7.804,0.612,11.037,1.837s5.893,2.885,7.977,4.979c2.084,2.096,3.663,4.534,4.737,7.316S466.734,30.683,466.734,33.755z
			 M453.006,33.755c0-1.676-0.247-3.207-0.741-4.592c-0.494-1.387-1.24-2.589-2.24-3.609c-0.998-1.021-2.218-1.815-3.657-2.385
			s-3.104-0.854-4.995-0.854c-3.609,0-6.445,1.053-8.508,3.158s-3.094,4.866-3.094,8.282s1.036,6.183,3.109,8.299
			s4.904,3.174,8.492,3.174c2.471,0,4.576-0.488,6.316-1.467c1.74-0.977,3.062-2.33,3.964-4.061
			C452.555,37.972,453.006,35.989,453.006,33.755z"/>
		<path fill="#FFFFFF" d="M506.341,43.133c0,2.793-0.715,5.21-2.144,7.251s-3.421,3.604-5.978,4.689
			c-2.557,1.084-5.489,1.627-8.798,1.627c-0.924,0-2.058-0.06-3.4-0.178s-3.125-0.445-5.35-0.982
			c-2.223-0.537-4.538-1.332-6.944-2.385V42.198c2.256,1.396,4.474,2.557,6.655,3.48c2.18,0.924,4.517,1.386,7.009,1.386
			c2.299,0,3.786-0.381,4.464-1.144c0.676-0.763,1.015-1.478,1.015-2.144c0-1.203-0.58-2.218-1.74-3.046
			c-1.16-0.826-2.847-1.681-5.06-2.562c-2.449-1.031-4.598-2.153-6.445-3.368c-1.848-1.213-3.357-2.733-4.527-4.56
			c-1.172-1.826-1.757-3.985-1.757-6.478c0-2.406,0.591-4.581,1.772-6.525s2.986-3.497,5.414-4.657s5.393-1.74,8.895-1.74
			c2.492,0,4.796,0.241,6.912,0.726c2.116,0.482,3.862,1.025,5.237,1.627s2.32,1.074,2.836,1.418v10.474
			c-1.826-1.311-3.862-2.481-6.106-3.513c-2.246-1.031-4.646-1.547-7.203-1.547c-1.676,0-2.89,0.322-3.642,0.967
			s-1.128,1.439-1.128,2.385c0,0.881,0.376,1.644,1.128,2.288s2.095,1.429,4.028,2.353c3.438,1.611,6.188,3.062,8.25,4.351
			s3.679,2.777,4.85,4.464S506.341,40.619,506.341,43.133z"/>
	</g>
	<path fill-rule="evenodd" clip-rule="evenodd" fill="#FFFFFF" d="M88.254,42.327c8.462-0.65,14.674-4.056,20.397-8.622
		c2.474-1.972,5.071-3.578,8.125-0.953c0.891,0.767,1.683,1.593,1.15,2.887c-0.27,0.65-0.739,1.289-1.54,1.179
		c-1.201-0.164-1.739-0.975-1.814-2.177c-0.04-0.679-0.429-1.198-1.194-0.991c-0.732,0.199-0.81,0.835-0.65,1.479
		c0.407,1.625,1.317,2.884,2.989,3.286c1.745,0.419,2.724-0.809,3.558-2.06c0.932-1.394,0.434-2.588-0.593-3.743
		c-3.226-3.629-5.949-3.921-9.921-0.964c-5.232,3.896-10.561,7.51-17.192,8.745c-5.562,1.036-11.259-2.307-12.192-7.461
		c-0.328-1.809,0.286-3.214,1.649-4.378c1.221-1.044,2.524-0.999,3.877-0.34c1.246,0.606,2.291,1.428,1.921,2.997
		c-0.366,1.567-1.508,2.17-3.096,2.204c-0.839,0.017-2.41-0.717-2.37,0.549c0.043,1.372,1.748,1.531,2.935,1.336
		c2.196-0.364,3.845-1.518,4.425-3.839c0.509-2.038-0.495-3.478-2.104-4.316c-2.024-1.053-4.216-1.651-6.326,0.044
		c-4.138,3.32-2.7,10.667,2.749,13.371C84.947,41.509,86.948,42.505,88.254,42.327"/>
	<path fill-rule="evenodd" clip-rule="evenodd" fill="#FFFFFF" d="M33.791,36.527c-4.336,0-8.671-0.017-13.007,0.019
		c-0.603,0.006-1.417-0.419-1.781,0.52c0.538,0.201,1.071,0.563,1.616,0.578c5.456,0.148,10.912,0.229,16.368,0.354
		c3.281,0.074,6.598-0.326,9.817,0.614c0.805,0.237,1.398,0.032,1.786-0.61c0.184-0.307,0.235-0.858,0.082-1.167
		c-0.336-0.685-1.026-0.395-1.622-0.393c-4.418,0.019-8.839,0.011-13.259,0.011V36.527z"/>
	<path fill-rule="evenodd" clip-rule="evenodd" fill="#FFFFFF" d="M69.593,33.269c-2.31-0.046-3.189,0.928-3.183,2.707
		c0.006,2.108,0.702,3.881,3.078,4.085c2.223,0.19,3.191-1.445,3.158-3.305C72.608,34.714,71.129,33.595,69.593,33.269"/>
	<path fill-rule="evenodd" clip-rule="evenodd" fill="#FFFFFF" d="M60.924,37.17c0.043,1.317,0.462,1.987,1.557,1.925
		c1.298-0.071,1.794-0.917,1.71-2.094c-0.067-0.912-0.505-1.814-1.526-1.719C61.492,35.39,61.016,36.356,60.924,37.17"/>
	<path fill-rule="evenodd" clip-rule="evenodd" fill="#FFFFFF" d="M56.883,38.748c0.911-0.081,1.529-0.449,1.546-1.398
		c0.017-0.998-0.515-1.664-1.504-1.696c-0.963-0.031-1.651,0.547-1.66,1.55C55.254,38.227,55.957,38.68,56.883,38.748"/>
	<path fill-rule="evenodd" clip-rule="evenodd" fill="#FFFFFF" d="M557.743,42.327c-8.462-0.65-14.674-4.056-20.396-8.622
		c-2.475-1.972-5.072-3.578-8.125-0.953c-0.892,0.767-1.684,1.593-1.151,2.887c0.27,0.65,0.739,1.289,1.54,1.179
		c1.201-0.164,1.739-0.975,1.814-2.177c0.04-0.679,0.429-1.198,1.194-0.991c0.732,0.199,0.811,0.835,0.65,1.479
		c-0.407,1.625-1.317,2.884-2.989,3.286c-1.745,0.419-2.724-0.809-3.558-2.06c-0.932-1.394-0.434-2.588,0.593-3.743
		c3.226-3.629,5.949-3.921,9.921-0.964c5.232,3.896,10.561,7.51,17.192,8.745c5.562,1.036,11.259-2.307,12.192-7.461
		c0.328-1.809-0.286-3.214-1.648-4.378c-1.222-1.044-2.525-0.999-3.878-0.34c-1.246,0.606-2.291,1.428-1.921,2.997
		c0.366,1.567,1.508,2.17,3.096,2.204c0.839,0.017,2.411-0.717,2.37,0.549c-0.042,1.372-1.748,1.531-2.935,1.336
		c-2.196-0.364-3.845-1.518-4.425-3.839c-0.509-2.038,0.495-3.478,2.104-4.316c2.024-1.053,4.216-1.651,6.326,0.044
		c4.138,3.32,2.7,10.667-2.749,13.371C561.049,41.509,559.048,42.505,557.743,42.327"/>
	<path fill-rule="evenodd" clip-rule="evenodd" fill="#FFFFFF" d="M612.206,36.527c4.336,0,8.671-0.017,13.007,0.019
		c0.603,0.006,1.417-0.419,1.781,0.52c-0.538,0.201-1.071,0.563-1.616,0.578c-5.456,0.148-10.912,0.229-16.368,0.354
		c-3.281,0.074-6.598-0.326-9.817,0.614c-0.805,0.237-1.398,0.032-1.786-0.61c-0.184-0.307-0.235-0.858-0.082-1.167
		c0.336-0.685,1.027-0.395,1.622-0.393c4.418,0.019,8.839,0.011,13.259,0.011V36.527z"/>
	<path fill-rule="evenodd" clip-rule="evenodd" fill="#FFFFFF" d="M576.404,33.269c2.31-0.046,3.189,0.928,3.183,2.707
		c-0.006,2.108-0.702,3.881-3.078,4.085c-2.223,0.19-3.191-1.445-3.158-3.305C573.389,34.714,574.868,33.595,576.404,33.269"/>
	<path fill-rule="evenodd" clip-rule="evenodd" fill="#FFFFFF" d="M585.073,37.17c-0.043,1.317-0.462,1.987-1.557,1.925
		c-1.298-0.071-1.794-0.917-1.71-2.094c0.067-0.912,0.505-1.814,1.526-1.719C584.505,35.39,584.981,36.356,585.073,37.17"/>
	<path fill-rule="evenodd" clip-rule="evenodd" fill="#FFFFFF" d="M589.114,38.748c-0.911-0.081-1.529-0.449-1.546-1.398
		c-0.018-0.998,0.515-1.664,1.504-1.696c0.963-0.031,1.651,0.547,1.66,1.55C590.743,38.227,590.04,38.68,589.114,38.748"/>
</g>
</svg>
